<svg width="522" height="164" viewBox="0 0 522 164" fill="none" xmlns="http://www.w3.org/2000/svg">
<path d="M35.2344 55H0.675781V4.58594H35.2344V14.6758H10.7656V24.7656H27.3242V34.8555H10.7656V44.9102H35.2344V55ZM50.8789 55H41.2812V17.3477H43.6016L46.7656 21.0039C48.3125 19.5977 50.0586 18.5195 52.0039 17.7695C53.9727 16.9961 56.0234 16.6094 58.1562 16.6094C60.4531 16.6094 62.6211 17.0547 64.6602 17.9453C66.6992 18.8125 68.4805 20.0195 70.0039 21.5664C71.5273 23.0898 72.7227 24.8828 73.5898 26.9453C74.4805 28.9844 74.9258 31.1641 74.9258 33.4844V55H65.3281V33.4844C65.3281 32.5 65.1406 31.5742 64.7656 30.707C64.3906 29.8164 63.875 29.043 63.2188 28.3867C62.5625 27.7305 61.8008 27.2148 60.9336 26.8398C60.0664 26.4648 59.1406 26.2773 58.1562 26.2773C57.1484 26.2773 56.1992 26.4648 55.3086 26.8398C54.418 27.2148 53.6445 27.7305 52.9883 28.3867C52.332 29.043 51.8164 29.8164 51.4414 30.707C51.0664 31.5742 50.8789 32.5 50.8789 33.4844V55ZM93.2422 7.11719C93.2422 8.00781 93.0664 8.83984 92.7148 9.61328C92.3867 10.3867 91.9297 11.0664 91.3438 11.6523C90.7812 12.2148 90.1016 12.6719 89.3047 13.0234C88.5312 13.3516 87.7109 13.5156 86.8438 13.5156C85.9297 13.5156 85.0742 13.3516 84.2773 13.0234C83.5039 12.6719 82.8242 12.2148 82.2383 11.6523C81.6523 11.0664 81.1836 10.3867 80.832 9.61328C80.5039 8.83984 80.3398 8.00781 80.3398 7.11719C80.3398 6.25 80.5039 5.42969 80.832 4.65625C81.1836 3.85937 81.6523 3.17969 82.2383 2.61719C82.8242 2.03125 83.5039 1.57422 84.2773 1.24609C85.0742 0.894531 85.9297 0.71875 86.8438 0.71875C87.7109 0.71875 88.5312 0.894531 89.3047 1.24609C90.1016 1.57422 90.7812 2.03125 91.3438 2.61719C91.9297 3.17969 92.3867 3.85937 92.7148 4.65625C93.0664 5.42969 93.2422 6.25 93.2422 7.11719ZM67.4727 69.3438V59.6758L72.7812 59.7461C74.0703 59.7461 75.2656 59.4766 76.3672 58.9375C77.4688 58.4219 78.418 57.7188 79.2148 56.8281C80.0352 55.9609 80.6797 54.9531 81.1484 53.8047C81.6172 52.6562 81.8516 51.4492 81.8516 50.1836V17.3477H91.6602V50.1836H91.5898C91.5664 51.9414 91.3203 53.6406 90.8516 55.2812C90.4062 56.9219 89.7617 58.4453 88.918 59.8516C88.0742 61.2812 87.0664 62.5703 85.8945 63.7188C84.7227 64.8906 83.4219 65.8867 81.9922 66.707C80.5859 67.5508 79.0742 68.1953 77.457 68.6406C75.8164 69.1094 74.1172 69.3438 72.3594 69.3438H67.4727ZM135.324 35.8398C135.324 38.6523 134.82 41.2773 133.812 43.7148C132.805 46.1289 131.434 48.2266 129.699 50.0078C127.965 51.7656 125.926 53.1602 123.582 54.1914C121.262 55.1992 118.766 55.7031 116.094 55.7031C113.445 55.7031 110.949 55.1992 108.605 54.1914C106.285 53.1602 104.246 51.7656 102.488 50.0078C100.754 48.2266 99.3828 46.1289 98.375 43.7148C97.3672 41.2773 96.8633 38.6523 96.8633 35.8398C96.8633 32.9805 97.3672 30.332 98.375 27.8945C99.3828 25.457 100.754 23.3594 102.488 21.6016C104.246 19.8203 106.285 18.4258 108.605 17.418C110.949 16.4102 113.445 15.9062 116.094 15.9062C118.766 15.9062 121.262 16.3867 123.582 17.3477C125.926 18.2852 127.965 19.6328 129.699 21.3906C131.434 23.125 132.805 25.2227 133.812 27.6836C134.82 30.1211 135.324 32.8398 135.324 35.8398ZM125.656 35.8398C125.656 34.293 125.398 32.8984 124.883 31.6562C124.391 30.3906 123.711 29.3125 122.844 28.4219C121.977 27.5078 120.957 26.8164 119.785 26.3477C118.637 25.8555 117.406 25.6094 116.094 25.6094C114.781 25.6094 113.539 25.8555 112.367 26.3477C111.219 26.8164 110.211 27.5078 109.344 28.4219C108.5 29.3125 107.832 30.3906 107.34 31.6562C106.848 32.8984 106.602 34.293 106.602 35.8398C106.602 37.293 106.848 38.6406 107.34 39.8828C107.832 41.125 108.5 42.2031 109.344 43.1172C110.211 44.0312 111.219 44.7578 112.367 45.2969C113.539 45.8125 114.781 46.0703 116.094 46.0703C117.406 46.0703 118.637 45.8242 119.785 45.332C120.957 44.8398 121.977 44.1484 122.844 43.2578C123.711 42.3672 124.391 41.2891 124.883 40.0234C125.398 38.7578 125.656 37.3633 125.656 35.8398ZM149.703 69.3438V59.6758L155.047 59.7461C155.984 59.7461 156.887 59.5938 157.754 59.2891C158.621 58.9844 159.418 58.5625 160.145 58.0234C160.895 57.4844 161.551 56.8398 162.113 56.0898C162.676 55.3633 163.133 54.5664 163.484 53.6992C162.43 54.1445 161.352 54.5898 160.25 55.0352C159.172 55.4805 158.082 55.7031 156.98 55.7031C154.66 55.7031 152.48 55.293 150.441 54.4727C148.402 53.6523 146.609 52.4922 145.062 50.9922C143.539 49.4688 142.332 47.6289 141.441 45.4727C140.574 43.293 140.141 40.8555 140.141 38.1602V17.3477H149.703V38.1602C149.703 39.4961 149.891 40.668 150.266 41.6758C150.664 42.6602 151.191 43.4922 151.848 44.1719C152.504 44.8281 153.266 45.3203 154.133 45.6484C155.023 45.9766 155.973 46.1406 156.98 46.1406C157.965 46.1406 158.891 45.918 159.758 45.4727C160.648 45.0039 161.422 44.3945 162.078 43.6445C162.734 42.8945 163.25 42.0508 163.625 41.1133C164 40.1523 164.188 39.168 164.188 38.1602V17.3477H173.855V50.2539C173.832 52.9023 173.316 55.3867 172.309 57.707C171.301 60.0273 169.918 62.0547 168.16 63.7891C166.426 65.5234 164.398 66.8945 162.078 67.9023C159.758 68.9102 157.273 69.4141 154.625 69.4141L149.703 69.3438ZM225.078 55H215.023V39.2148C212.797 38.6523 210.746 37.75 208.871 36.5078C207.02 35.2656 205.426 33.7891 204.09 32.0781C202.754 30.3438 201.711 28.4336 200.961 26.3477C200.234 24.2383 199.871 22.0234 199.871 19.7031V4.58594H209.961V19.7031C209.961 21.0859 210.219 22.3984 210.734 23.6406C211.273 24.8594 212 25.9258 212.914 26.8398C213.828 27.7539 214.895 28.4805 216.113 29.0195C217.355 29.5352 218.668 29.793 220.051 29.793C221.434 29.793 222.734 29.5352 223.953 29.0195C225.195 28.4805 226.273 27.7539 227.188 26.8398C228.102 25.9258 228.816 24.8594 229.332 23.6406C229.871 22.3984 230.141 21.0859 230.141 19.7031V4.58594H240.195V19.7031C240.195 22.0234 239.82 24.2383 239.07 26.3477C238.344 28.4336 237.312 30.3438 235.977 32.0781C234.641 33.7891 233.047 35.2656 231.195 36.5078C229.344 37.75 227.305 38.6523 225.078 39.2148V55ZM280.941 35.8398C280.941 38.6523 280.438 41.2773 279.43 43.7148C278.422 46.1289 277.051 48.2266 275.316 50.0078C273.582 51.7656 271.543 53.1602 269.199 54.1914C266.879 55.1992 264.383 55.7031 261.711 55.7031C259.062 55.7031 256.566 55.1992 254.223 54.1914C251.902 53.1602 249.863 51.7656 248.105 50.0078C246.371 48.2266 245 46.1289 243.992 43.7148C242.984 41.2773 242.48 38.6523 242.48 35.8398C242.48 32.9805 242.984 30.332 243.992 27.8945C245 25.457 246.371 23.3594 248.105 21.6016C249.863 19.8203 251.902 18.4258 254.223 17.418C256.566 16.4102 259.062 15.9062 261.711 15.9062C264.383 15.9062 266.879 16.3867 269.199 17.3477C271.543 18.2852 273.582 19.6328 275.316 21.3906C277.051 23.125 278.422 25.2227 279.43 27.6836C280.438 30.1211 280.941 32.8398 280.941 35.8398ZM271.273 35.8398C271.273 34.293 271.016 32.8984 270.5 31.6562C270.008 30.3906 269.328 29.3125 268.461 28.4219C267.594 27.5078 266.574 26.8164 265.402 26.3477C264.254 25.8555 263.023 25.6094 261.711 25.6094C260.398 25.6094 259.156 25.8555 257.984 26.3477C256.836 26.8164 255.828 27.5078 254.961 28.4219C254.117 29.3125 253.449 30.3906 252.957 31.6562C252.465 32.8984 252.219 34.293 252.219 35.8398C252.219 37.293 252.465 38.6406 252.957 39.8828C253.449 41.125 254.117 42.2031 254.961 43.1172C255.828 44.0312 256.836 44.7578 257.984 45.2969C259.156 45.8125 260.398 46.0703 261.711 46.0703C263.023 46.0703 264.254 45.8242 265.402 45.332C266.574 44.8398 267.594 44.1484 268.461 43.2578C269.328 42.3672 270.008 41.2891 270.5 40.0234C271.016 38.7578 271.273 37.3633 271.273 35.8398ZM313.918 50.6055C313.145 51.3086 312.312 51.9766 311.422 52.6094C310.555 53.2188 309.641 53.7578 308.68 54.2266C307.719 54.6719 306.723 55.0234 305.691 55.2812C304.684 55.5625 303.652 55.7031 302.598 55.7031C300.277 55.7031 298.098 55.293 296.059 54.4727C294.02 53.6523 292.227 52.4922 290.68 50.9922C289.156 49.4688 287.949 47.6289 287.059 45.4727C286.191 43.293 285.758 40.8555 285.758 38.1602V17.3477H295.32V38.1602C295.32 39.4258 295.508 40.5625 295.883 41.5703C296.281 42.5547 296.809 43.3867 297.465 44.0664C298.121 44.7461 298.883 45.2617 299.75 45.6133C300.641 45.9648 301.59 46.1406 302.598 46.1406C303.582 46.1406 304.508 45.918 305.375 45.4727C306.266 45.0039 307.039 44.3945 307.695 43.6445C308.352 42.8945 308.867 42.0508 309.242 41.1133C309.617 40.1523 309.805 39.168 309.805 38.1602V17.3477H319.402V55H317.082L313.918 50.6055ZM336.348 55H326.75V17.3477H329.07L332.234 21.8125C333.781 20.4062 335.539 19.3281 337.508 18.5781C339.477 17.8047 341.516 17.418 343.625 17.418H352.098V26.9805H343.625C342.617 26.9805 341.668 27.168 340.777 27.543C339.887 27.918 339.113 28.4336 338.457 29.0898C337.801 29.7461 337.285 30.5195 336.91 31.4102C336.535 32.3008 336.348 33.25 336.348 34.2578V55ZM50.7031 149H40.6484V113C40.6484 112.297 40.5078 111.641 40.2266 111.031C39.9688 110.422 39.6055 109.895 39.1367 109.449C38.6914 108.98 38.1641 108.617 37.5547 108.359C36.9453 108.102 36.2891 107.973 35.5859 107.973C34.8828 107.973 34.2266 108.102 33.6172 108.359C33.0078 108.617 32.4688 108.98 32 109.449C31.5547 109.895 31.2031 110.422 30.9453 111.031C30.6875 111.641 30.5586 112.297 30.5586 113V149H20.4688V113C20.4688 112.297 20.3398 111.641 20.082 111.031C19.8242 110.422 19.4609 109.895 18.9922 109.449C18.5469 108.98 18.0195 108.617 17.4102 108.359C16.8008 108.102 16.1445 107.973 15.4414 107.973C14.7383 107.973 14.082 108.102 13.4727 108.359C12.8633 108.617 12.3242 108.98 11.8555 109.449C11.4102 109.895 11.0586 110.422 10.8008 111.031C10.543 111.641 10.4141 112.297 10.4141 113V149H0.324219V113C0.324219 110.914 0.710938 108.957 1.48438 107.129C2.28125 105.277 3.35938 103.672 4.71875 102.312C6.10156 100.93 7.70703 99.8516 9.53516 99.0781C11.3867 98.2812 13.3555 97.8828 15.4414 97.8828C17.3164 97.8828 19.1211 98.2227 20.8555 98.9023C22.5898 99.5586 24.1484 100.52 25.5312 101.785C26.9141 100.52 28.4609 99.5586 30.1719 98.9023C31.9062 98.2227 33.7109 97.8828 35.5859 97.8828C37.6719 97.8828 39.6289 98.2812 41.457 99.0781C43.3086 99.8516 44.9141 100.93 46.2734 102.312C47.6562 103.672 48.7344 105.277 49.5078 107.129C50.3047 108.957 50.7031 110.914 50.7031 113V149ZM94.6836 129.84C94.6836 132.652 94.1797 135.277 93.1719 137.715C92.1641 140.129 90.793 142.227 89.0586 144.008C87.3242 145.766 85.2852 147.16 82.9414 148.191C80.6211 149.199 78.125 149.703 75.4531 149.703C72.8047 149.703 70.3086 149.199 67.9648 148.191C65.6445 147.16 63.6055 145.766 61.8477 144.008C60.1133 142.227 58.7422 140.129 57.7344 137.715C56.7266 135.277 56.2227 132.652 56.2227 129.84C56.2227 126.98 56.7266 124.332 57.7344 121.895C58.7422 119.457 60.1133 117.359 61.8477 115.602C63.6055 113.82 65.6445 112.426 67.9648 111.418C70.3086 110.41 72.8047 109.906 75.4531 109.906C78.125 109.906 80.6211 110.387 82.9414 111.348C85.2852 112.285 87.3242 113.633 89.0586 115.391C90.793 117.125 92.1641 119.223 93.1719 121.684C94.1797 124.121 94.6836 126.84 94.6836 129.84ZM85.0156 129.84C85.0156 128.293 84.7578 126.898 84.2422 125.656C83.75 124.391 83.0703 123.312 82.2031 122.422C81.3359 121.508 80.3164 120.816 79.1445 120.348C77.9961 119.855 76.7656 119.609 75.4531 119.609C74.1406 119.609 72.8984 119.855 71.7266 120.348C70.5781 120.816 69.5703 121.508 68.7031 122.422C67.8594 123.312 67.1914 124.391 66.6992 125.656C66.207 126.898 65.9609 128.293 65.9609 129.84C65.9609 131.293 66.207 132.641 66.6992 133.883C67.1914 135.125 67.8594 136.203 68.7031 137.117C69.5703 138.031 70.5781 138.758 71.7266 139.297C72.8984 139.812 74.1406 140.07 75.4531 140.07C76.7656 140.07 77.9961 139.824 79.1445 139.332C80.3164 138.84 81.3359 138.148 82.2031 137.258C83.0703 136.367 83.75 135.289 84.2422 134.023C84.7578 132.758 85.0156 131.363 85.0156 129.84ZM109.59 149H99.9922V111.348H102.312L105.477 115.812C107.023 114.406 108.781 113.328 110.75 112.578C112.719 111.805 114.758 111.418 116.867 111.418H125.34V120.98H116.867C115.859 120.98 114.91 121.168 114.02 121.543C113.129 121.918 112.355 122.434 111.699 123.09C111.043 123.746 110.527 124.52 110.152 125.41C109.777 126.301 109.59 127.25 109.59 128.258V149ZM139.402 149H129.805V111.348H132.125L135.289 115.004C136.836 113.598 138.582 112.52 140.527 111.77C142.496 110.996 144.547 110.609 146.68 110.609C148.977 110.609 151.145 111.055 153.184 111.945C155.223 112.812 157.004 114.02 158.527 115.566C160.051 117.09 161.246 118.883 162.113 120.945C163.004 122.984 163.449 125.164 163.449 127.484V149H153.852V127.484C153.852 126.5 153.664 125.574 153.289 124.707C152.914 123.816 152.398 123.043 151.742 122.387C151.086 121.73 150.324 121.215 149.457 120.84C148.59 120.465 147.664 120.277 146.68 120.277C145.672 120.277 144.723 120.465 143.832 120.84C142.941 121.215 142.168 121.73 141.512 122.387C140.855 123.043 140.34 123.816 139.965 124.707C139.59 125.574 139.402 126.5 139.402 127.484V149ZM181.625 101.117C181.625 102.008 181.449 102.84 181.098 103.613C180.77 104.387 180.312 105.066 179.727 105.652C179.141 106.215 178.449 106.672 177.652 107.023C176.879 107.352 176.047 107.516 175.156 107.516C174.266 107.516 173.422 107.352 172.625 107.023C171.852 106.672 171.172 106.215 170.586 105.652C170.023 105.066 169.566 104.387 169.215 103.613C168.887 102.84 168.723 102.008 168.723 101.117C168.723 100.25 168.887 99.4297 169.215 98.6562C169.566 97.8594 170.023 97.1797 170.586 96.6172C171.172 96.0312 171.852 95.5742 172.625 95.2461C173.422 94.8945 174.266 94.7188 175.156 94.7188C176.047 94.7188 176.879 94.8945 177.652 95.2461C178.449 95.5742 179.141 96.0312 179.727 96.6172C180.312 97.1797 180.77 97.8594 181.098 98.6562C181.449 99.4297 181.625 100.25 181.625 101.117ZM179.973 149H170.305V111.348H179.973V149ZM196.918 149H187.32V111.348H189.641L192.805 115.004C194.352 113.598 196.098 112.52 198.043 111.77C200.012 110.996 202.062 110.609 204.195 110.609C206.492 110.609 208.66 111.055 210.699 111.945C212.738 112.812 214.52 114.02 216.043 115.566C217.566 117.09 218.762 118.883 219.629 120.945C220.52 122.984 220.965 125.164 220.965 127.484V149H211.367V127.484C211.367 126.5 211.18 125.574 210.805 124.707C210.43 123.816 209.914 123.043 209.258 122.387C208.602 121.73 207.84 121.215 206.973 120.84C206.105 120.465 205.18 120.277 204.195 120.277C203.188 120.277 202.238 120.465 201.348 120.84C200.457 121.215 199.684 121.73 199.027 122.387C198.371 123.043 197.855 123.816 197.48 124.707C197.105 125.574 196.918 126.5 196.918 127.484V149ZM254.609 129.84C254.609 128.527 254.352 127.262 253.836 126.043C253.344 124.801 252.664 123.711 251.797 122.773C250.93 121.812 249.91 121.051 248.738 120.488C247.59 119.902 246.359 119.609 245.047 119.609C243.734 119.609 242.492 119.832 241.32 120.277C240.172 120.723 239.164 121.379 238.297 122.246C237.453 123.113 236.785 124.191 236.293 125.48C235.801 126.746 235.555 128.199 235.555 129.84C235.555 131.41 235.801 132.828 236.293 134.094C236.785 135.336 237.453 136.402 238.297 137.293C239.164 138.184 240.172 138.875 241.32 139.367C242.492 139.836 243.734 140.07 245.047 140.07C246.359 140.07 247.59 139.789 248.738 139.227C249.91 138.641 250.93 137.879 251.797 136.941C252.664 135.98 253.344 134.891 253.836 133.672C254.352 132.43 254.609 131.152 254.609 129.84ZM264.277 144.254C264.277 146.902 263.773 149.387 262.766 151.707C261.758 154.027 260.375 156.055 258.617 157.789C256.883 159.523 254.844 160.895 252.5 161.902C250.18 162.91 247.695 163.414 245.047 163.414L240.23 163.344V153.746L244.977 153.816C246.477 153.816 247.754 153.617 248.809 153.219C249.863 152.844 250.754 152.316 251.48 151.637C252.207 150.98 252.781 150.219 253.203 149.352C253.648 148.484 254 147.57 254.258 146.609C253.883 147.219 253.344 147.723 252.641 148.121C251.938 148.496 251.152 148.801 250.285 149.035C249.441 149.293 248.551 149.469 247.613 149.562C246.699 149.656 245.844 149.703 245.047 149.703C242.398 149.703 239.902 149.246 237.559 148.332C235.238 147.418 233.199 146.117 231.441 144.43C229.707 142.719 228.336 140.633 227.328 138.172C226.32 135.711 225.816 132.934 225.816 129.84C225.816 127.004 226.32 124.367 227.328 121.93C228.336 119.492 229.707 117.383 231.441 115.602C233.199 113.82 235.238 112.426 237.559 111.418C239.902 110.41 242.398 109.906 245.047 109.906C246.266 109.906 247.473 110.059 248.668 110.363C249.863 110.668 251.023 111.09 252.148 111.629C253.273 112.168 254.34 112.801 255.348 113.527C256.379 114.254 257.34 115.039 258.23 115.883L261.957 111.418H264.277V144.254ZM333.078 143.832C330.734 145.848 328.109 147.395 325.203 148.473C322.297 149.551 319.285 150.09 316.168 150.09C313.777 150.09 311.469 149.773 309.242 149.141C307.039 148.531 304.965 147.664 303.02 146.539C301.098 145.391 299.34 144.02 297.746 142.426C296.152 140.832 294.781 139.074 293.633 137.152C292.508 135.207 291.629 133.133 290.996 130.93C290.387 128.703 290.082 126.395 290.082 124.004C290.082 121.613 290.387 119.305 290.996 117.078C291.629 114.852 292.508 112.777 293.633 110.855C294.781 108.91 296.152 107.141 297.746 105.547C299.34 103.953 301.098 102.594 303.02 101.469C304.965 100.32 307.039 99.4414 309.242 98.832C311.469 98.1992 313.777 97.8828 316.168 97.8828C319.285 97.8828 322.297 98.4219 325.203 99.5C328.109 100.555 330.734 102.102 333.078 104.141L327.734 112.93C326.258 111.336 324.512 110.117 322.496 109.273C320.48 108.406 318.371 107.973 316.168 107.973C313.941 107.973 311.855 108.395 309.91 109.238C307.965 110.082 306.266 111.23 304.812 112.684C303.359 114.113 302.211 115.812 301.367 117.781C300.523 119.727 300.102 121.801 300.102 124.004C300.102 126.207 300.523 128.281 301.367 130.227C302.211 132.148 303.359 133.836 304.812 135.289C306.266 136.742 307.965 137.891 309.91 138.734C311.855 139.578 313.941 140 316.168 140C318.371 140 320.48 139.578 322.496 138.734C324.512 137.867 326.258 136.637 327.734 135.043L333.078 143.832ZM372.98 129.84C372.98 132.652 372.477 135.277 371.469 137.715C370.461 140.129 369.09 142.227 367.355 144.008C365.621 145.766 363.582 147.16 361.238 148.191C358.918 149.199 356.422 149.703 353.75 149.703C351.102 149.703 348.605 149.199 346.262 148.191C343.941 147.16 341.902 145.766 340.145 144.008C338.41 142.227 337.039 140.129 336.031 137.715C335.023 135.277 334.52 132.652 334.52 129.84C334.52 126.98 335.023 124.332 336.031 121.895C337.039 119.457 338.41 117.359 340.145 115.602C341.902 113.82 343.941 112.426 346.262 111.418C348.605 110.41 351.102 109.906 353.75 109.906C356.422 109.906 358.918 110.387 361.238 111.348C363.582 112.285 365.621 113.633 367.355 115.391C369.09 117.125 370.461 119.223 371.469 121.684C372.477 124.121 372.98 126.84 372.98 129.84ZM363.312 129.84C363.312 128.293 363.055 126.898 362.539 125.656C362.047 124.391 361.367 123.312 360.5 122.422C359.633 121.508 358.613 120.816 357.441 120.348C356.293 119.855 355.062 119.609 353.75 119.609C352.438 119.609 351.195 119.855 350.023 120.348C348.875 120.816 347.867 121.508 347 122.422C346.156 123.312 345.488 124.391 344.996 125.656C344.504 126.898 344.258 128.293 344.258 129.84C344.258 131.293 344.504 132.641 344.996 133.883C345.488 135.125 346.156 136.203 347 137.117C347.867 138.031 348.875 138.758 350.023 139.297C351.195 139.812 352.438 140.07 353.75 140.07C355.062 140.07 356.293 139.824 357.441 139.332C358.613 138.84 359.633 138.148 360.5 137.258C361.367 136.367 362.047 135.289 362.539 134.023C363.055 132.758 363.312 131.363 363.312 129.84ZM390.066 149H380.469V120.91H375.793V111.348H380.469V109.555C380.469 107.234 380.902 105.055 381.77 103.016C382.66 100.977 383.867 99.207 385.391 97.707C386.938 96.1836 388.73 94.9883 390.77 94.1211C392.809 93.2305 394.988 92.7852 397.309 92.7852H404.516V102.348H397.309C396.277 102.348 395.316 102.535 394.426 102.91C393.559 103.262 392.797 103.766 392.141 104.422C391.508 105.055 391.004 105.816 390.629 106.707C390.254 107.574 390.066 108.523 390.066 109.555V111.348H401.844V120.91H390.066V149ZM418.613 149H409.016V120.91H404.34V111.348H409.016V109.555C409.016 107.234 409.449 105.055 410.316 103.016C411.207 100.977 412.414 99.207 413.938 97.707C415.484 96.1836 417.277 94.9883 419.316 94.1211C421.355 93.2305 423.535 92.7852 425.855 92.7852H433.062V102.348H425.855C424.824 102.348 423.863 102.535 422.973 102.91C422.105 103.262 421.344 103.766 420.688 104.422C420.055 105.055 419.551 105.816 419.176 106.707C418.801 107.574 418.613 108.523 418.613 109.555V111.348H430.391V120.91H418.613V149ZM449.234 139.789C449.609 139.906 449.984 139.988 450.359 140.035C450.734 140.059 451.109 140.07 451.484 140.07C452.422 140.07 453.324 139.941 454.191 139.684C455.059 139.426 455.867 139.062 456.617 138.594C457.391 138.102 458.07 137.516 458.656 136.836C459.266 136.133 459.758 135.359 460.133 134.516L467.164 141.582C466.273 142.848 465.242 143.984 464.07 144.992C462.922 146 461.668 146.855 460.309 147.559C458.973 148.262 457.555 148.789 456.055 149.141C454.578 149.516 453.055 149.703 451.484 149.703C448.836 149.703 446.34 149.211 443.996 148.227C441.676 147.242 439.637 145.871 437.879 144.113C436.145 142.355 434.773 140.27 433.766 137.855C432.758 135.418 432.254 132.746 432.254 129.84C432.254 126.863 432.758 124.145 433.766 121.684C434.773 119.223 436.145 117.125 437.879 115.391C439.637 113.656 441.676 112.309 443.996 111.348C446.34 110.387 448.836 109.906 451.484 109.906C453.055 109.906 454.59 110.094 456.09 110.469C457.59 110.844 459.008 111.383 460.344 112.086C461.703 112.789 462.969 113.656 464.141 114.688C465.312 115.695 466.344 116.832 467.234 118.098L449.234 139.789ZM454.156 119.996C453.711 119.832 453.266 119.727 452.82 119.68C452.398 119.633 451.953 119.609 451.484 119.609C450.172 119.609 448.93 119.855 447.758 120.348C446.609 120.816 445.602 121.496 444.734 122.387C443.891 123.277 443.223 124.355 442.73 125.621C442.238 126.863 441.992 128.27 441.992 129.84C441.992 130.191 442.004 130.59 442.027 131.035C442.074 131.48 442.133 131.938 442.203 132.406C442.297 132.852 442.402 133.285 442.52 133.707C442.637 134.129 442.789 134.504 442.977 134.832L454.156 119.996ZM486.781 139.789C487.156 139.906 487.531 139.988 487.906 140.035C488.281 140.059 488.656 140.07 489.031 140.07C489.969 140.07 490.871 139.941 491.738 139.684C492.605 139.426 493.414 139.062 494.164 138.594C494.938 138.102 495.617 137.516 496.203 136.836C496.812 136.133 497.305 135.359 497.68 134.516L504.711 141.582C503.82 142.848 502.789 143.984 501.617 144.992C500.469 146 499.215 146.855 497.855 147.559C496.52 148.262 495.102 148.789 493.602 149.141C492.125 149.516 490.602 149.703 489.031 149.703C486.383 149.703 483.887 149.211 481.543 148.227C479.223 147.242 477.184 145.871 475.426 144.113C473.691 142.355 472.32 140.27 471.312 137.855C470.305 135.418 469.801 132.746 469.801 129.84C469.801 126.863 470.305 124.145 471.312 121.684C472.32 119.223 473.691 117.125 475.426 115.391C477.184 113.656 479.223 112.309 481.543 111.348C483.887 110.387 486.383 109.906 489.031 109.906C490.602 109.906 492.137 110.094 493.637 110.469C495.137 110.844 496.555 111.383 497.891 112.086C499.25 112.789 500.516 113.656 501.688 114.688C502.859 115.695 503.891 116.832 504.781 118.098L486.781 139.789ZM491.703 119.996C491.258 119.832 490.812 119.727 490.367 119.68C489.945 119.633 489.5 119.609 489.031 119.609C487.719 119.609 486.477 119.855 485.305 120.348C484.156 120.816 483.148 121.496 482.281 122.387C481.438 123.277 480.77 124.355 480.277 125.621C479.785 126.863 479.539 128.27 479.539 129.84C479.539 130.191 479.551 130.59 479.574 131.035C479.621 131.48 479.68 131.938 479.75 132.406C479.844 132.852 479.949 133.285 480.066 133.707C480.184 134.129 480.336 134.504 480.523 134.832L491.703 119.996ZM521.445 145.414C521.445 146.258 521.293 147.055 520.988 147.805C520.684 148.531 520.262 149.164 519.723 149.703C519.184 150.242 518.551 150.664 517.824 150.969C517.098 151.297 516.312 151.461 515.469 151.461C514.648 151.461 513.863 151.297 513.113 150.969C512.387 150.664 511.742 150.242 511.18 149.703C510.641 149.164 510.207 148.531 509.879 147.805C509.574 147.055 509.422 146.258 509.422 145.414C509.422 144.594 509.574 143.82 509.879 143.094C510.207 142.367 510.641 141.734 511.18 141.195C511.742 140.656 512.387 140.234 513.113 139.93C513.863 139.602 514.648 139.438 515.469 139.438C516.312 139.438 517.098 139.602 517.824 139.93C518.551 140.234 519.184 140.656 519.723 141.195C520.262 141.734 520.684 142.367 520.988 143.094C521.293 143.82 521.445 144.594 521.445 145.414Z" fill="white"/>
</svg>
