<svg width="500" height="57" viewBox="0 0 500 57" fill="none" xmlns="http://www.w3.org/2000/svg">
<path d="M11.79 2V3.68H7.13V16H5.45V3.68H0.8V2H11.79ZM22.3389 10.69V16H20.6589V10.73C20.6589 10.11 20.5289 9.54333 20.2689 9.03C20.0156 8.51667 19.6689 8.11 19.2289 7.81C18.7956 7.51 18.3156 7.36 17.7889 7.36C17.2356 7.36 16.7489 7.51 16.3289 7.81C15.9156 8.11 15.5922 8.51667 15.3589 9.03C15.1322 9.54333 15.0189 10.11 15.0189 10.73V16H13.3289V0.999999H15.0089V7.4C15.3222 6.81333 15.7289 6.39 16.2289 6.13C16.7289 5.86333 17.2956 5.73 17.9289 5.73C18.8022 5.73 19.5656 5.95667 20.2189 6.41C20.8789 6.86333 21.3922 7.46667 21.7589 8.22C22.1322 8.97333 22.3256 9.79667 22.3389 10.69ZM28.4516 16.26C27.5316 16.26 26.6916 16.0233 25.9316 15.55C25.1782 15.0767 24.5749 14.4433 24.1216 13.65C23.6749 12.85 23.4516 11.9667 23.4516 11C23.4516 10.2667 23.5816 9.58333 23.8416 8.95C24.1016 8.31 24.4582 7.75 24.9116 7.27C25.3716 6.78333 25.9049 6.40333 26.5116 6.13C27.1182 5.85667 27.7649 5.72 28.4516 5.72C29.2049 5.72 29.8949 5.87333 30.5216 6.18C31.1549 6.48 31.6949 6.9 32.1416 7.44C32.5949 7.98 32.9316 8.60667 33.1516 9.32C33.3782 10.0333 33.4616 10.7967 33.4016 11.61H25.2416C25.3216 12.1767 25.5082 12.6833 25.8016 13.13C26.0949 13.57 26.4682 13.92 26.9216 14.18C27.3816 14.44 27.8916 14.5733 28.4516 14.58C29.0516 14.58 29.5949 14.4267 30.0816 14.12C30.5682 13.8067 30.9616 13.38 31.2616 12.84L32.9716 13.24C32.5716 14.1267 31.9682 14.8533 31.1616 15.42C30.3549 15.98 29.4516 16.26 28.4516 16.26ZM25.1916 10.29H31.7116C31.6582 9.73 31.4782 9.22 31.1716 8.76C30.8649 8.29333 30.4749 7.92 30.0016 7.64C29.5282 7.36 29.0116 7.22 28.4516 7.22C27.8916 7.22 27.3782 7.35667 26.9116 7.63C26.4449 7.90333 26.0582 8.27333 25.7516 8.74C25.4516 9.2 25.2649 9.71667 25.1916 10.29ZM46.3277 16.26C45.381 16.26 44.491 16.0733 43.6577 15.7C42.8243 15.32 42.091 14.8 41.4577 14.14C40.831 13.4733 40.3377 12.7 39.9777 11.82C39.6243 10.94 39.4477 10 39.4477 9C39.4477 8 39.6243 7.06 39.9777 6.18C40.3377 5.3 40.831 4.53 41.4577 3.87C42.091 3.20333 42.8243 2.68333 43.6577 2.31C44.491 1.93 45.381 1.74 46.3277 1.74C47.461 1.74 48.5043 2.00333 49.4577 2.53C50.411 3.05667 51.201 3.75667 51.8277 4.63L50.3377 5.43C49.871 4.81667 49.281 4.33 48.5677 3.97C47.861 3.60333 47.1143 3.42 46.3277 3.42C45.601 3.42 44.921 3.56667 44.2877 3.86C43.661 4.15333 43.111 4.55667 42.6377 5.07C42.1643 5.58333 41.7943 6.17667 41.5277 6.85C41.261 7.52333 41.1277 8.24 41.1277 9C41.1277 9.76667 41.261 10.4867 41.5277 11.16C41.801 11.8333 42.1743 12.4267 42.6477 12.94C43.1277 13.4533 43.681 13.8567 44.3077 14.15C44.941 14.4367 45.6143 14.58 46.3277 14.58C47.141 14.58 47.8943 14.3967 48.5877 14.03C49.2877 13.6567 49.871 13.17 50.3377 12.57L51.8277 13.38C51.201 14.2533 50.411 14.9533 49.4577 15.48C48.5043 16 47.461 16.26 46.3277 16.26ZM57.7094 16.26C56.7894 16.26 55.9494 16.0233 55.1894 15.55C54.436 15.0767 53.8327 14.4433 53.3794 13.65C52.9327 12.85 52.7094 11.9667 52.7094 11C52.7094 10.2667 52.8394 9.58333 53.0994 8.95C53.3594 8.31 53.716 7.75 54.1694 7.27C54.6294 6.78333 55.1627 6.40333 55.7694 6.13C56.376 5.85667 57.0227 5.72 57.7094 5.72C58.6294 5.72 59.466 5.95667 60.2194 6.43C60.9794 6.90333 61.5827 7.54 62.0294 8.34C62.4827 9.14 62.7094 10.0267 62.7094 11C62.7094 11.7267 62.5794 12.4067 62.3194 13.04C62.0594 13.6733 61.6994 14.2333 61.2394 14.72C60.786 15.2 60.256 15.5767 59.6494 15.85C59.0494 16.1233 58.4027 16.26 57.7094 16.26ZM57.7094 14.58C58.336 14.58 58.8994 14.4167 59.3994 14.09C59.906 13.7567 60.3027 13.32 60.5894 12.78C60.8827 12.2333 61.0294 11.64 61.0294 11C61.0294 10.3467 60.8794 9.74667 60.5794 9.2C60.286 8.65333 59.8894 8.21667 59.3894 7.89C58.8894 7.56333 58.3294 7.4 57.7094 7.4C57.0827 7.4 56.5194 7.56667 56.0194 7.9C55.5194 8.22667 55.1227 8.66333 54.8294 9.21C54.536 9.75667 54.3894 10.3533 54.3894 11C54.3894 11.6667 54.5394 12.2733 54.8394 12.82C55.1394 13.36 55.5427 13.79 56.0494 14.11C56.556 14.4233 57.1094 14.58 57.7094 14.58ZM68.7055 16.26C67.7855 16.26 66.9455 16.0233 66.1855 15.55C65.4321 15.0767 64.8288 14.4433 64.3755 13.65C63.9288 12.85 63.7055 11.9667 63.7055 11C63.7055 10.2667 63.8355 9.58333 64.0955 8.95C64.3555 8.31 64.7121 7.75 65.1655 7.27C65.6255 6.78333 66.1588 6.40333 66.7655 6.13C67.3721 5.85667 68.0188 5.72 68.7055 5.72C69.6255 5.72 70.4621 5.95667 71.2155 6.43C71.9755 6.90333 72.5788 7.54 73.0255 8.34C73.4788 9.14 73.7055 10.0267 73.7055 11C73.7055 11.7267 73.5755 12.4067 73.3155 13.04C73.0555 13.6733 72.6955 14.2333 72.2355 14.72C71.7821 15.2 71.2521 15.5767 70.6455 15.85C70.0455 16.1233 69.3988 16.26 68.7055 16.26ZM68.7055 14.58C69.3321 14.58 69.8955 14.4167 70.3955 14.09C70.9021 13.7567 71.2988 13.32 71.5855 12.78C71.8788 12.2333 72.0255 11.64 72.0255 11C72.0255 10.3467 71.8755 9.74667 71.5755 9.2C71.2821 8.65333 70.8855 8.21667 70.3855 7.89C69.8855 7.56333 69.3255 7.4 68.7055 7.4C68.0788 7.4 67.5155 7.56667 67.0155 7.9C66.5155 8.22667 66.1188 8.66333 65.8255 9.21C65.5321 9.75667 65.3855 10.3533 65.3855 11C65.3855 11.6667 65.5355 12.2733 65.8355 12.82C66.1355 13.36 66.5388 13.79 67.0455 14.11C67.5521 14.4233 68.1055 14.58 68.7055 14.58ZM77.7669 3.53V6H80.6969V7.68H77.7669V16H76.0869V7.68H74.7969V6H76.0869V3.53C76.0869 3.01667 76.2102 2.55333 76.4569 2.14C76.7102 1.72 77.0469 1.38667 77.4669 1.14C77.8935 0.886666 78.3602 0.76 78.8669 0.76C79.2402 0.76 79.6035 0.836666 79.9569 0.99C80.3102 1.13667 80.6235 1.35667 80.8969 1.65L79.6969 2.84C79.6035 2.71333 79.4802 2.61667 79.3269 2.55C79.1802 2.47667 79.0269 2.44 78.8669 2.44C78.5669 2.44 78.3069 2.54667 78.0869 2.76C77.8735 2.97333 77.7669 3.23 77.7669 3.53ZM86.4984 16.26C85.5784 16.26 84.7384 16.0233 83.9784 15.55C83.2251 15.0767 82.6218 14.4433 82.1684 13.65C81.7218 12.85 81.4984 11.9667 81.4984 11C81.4984 10.2667 81.6284 9.58333 81.8884 8.95C82.1484 8.31 82.5051 7.75 82.9584 7.27C83.4184 6.78333 83.9518 6.40333 84.5584 6.13C85.1651 5.85667 85.8118 5.72 86.4984 5.72C87.2518 5.72 87.9418 5.87333 88.5684 6.18C89.2018 6.48 89.7418 6.9 90.1884 7.44C90.6418 7.98 90.9784 8.60667 91.1984 9.32C91.4251 10.0333 91.5084 10.7967 91.4484 11.61H83.2884C83.3684 12.1767 83.5551 12.6833 83.8484 13.13C84.1418 13.57 84.5151 13.92 84.9684 14.18C85.4284 14.44 85.9384 14.5733 86.4984 14.58C87.0984 14.58 87.6418 14.4267 88.1284 14.12C88.6151 13.8067 89.0084 13.38 89.3084 12.84L91.0184 13.24C90.6184 14.1267 90.0151 14.8533 89.2084 15.42C88.4018 15.98 87.4984 16.26 86.4984 16.26ZM83.2384 10.29H89.7584C89.7051 9.73 89.5251 9.22 89.2184 8.76C88.9118 8.29333 88.5218 7.92 88.0484 7.64C87.5751 7.36 87.0584 7.22 86.4984 7.22C85.9384 7.22 85.4251 7.35667 84.9584 7.63C84.4918 7.90333 84.1051 8.27333 83.7984 8.74C83.4984 9.2 83.3118 9.71667 83.2384 10.29ZM97.4945 16.26C96.5745 16.26 95.7345 16.0233 94.9745 15.55C94.2212 15.0767 93.6179 14.4433 93.1645 13.65C92.7179 12.85 92.4945 11.9667 92.4945 11C92.4945 10.2667 92.6245 9.58333 92.8845 8.95C93.1445 8.31 93.5012 7.75 93.9545 7.27C94.4145 6.78333 94.9479 6.40333 95.5545 6.13C96.1612 5.85667 96.8079 5.72 97.4945 5.72C98.2479 5.72 98.9379 5.87333 99.5645 6.18C100.198 6.48 100.738 6.9 101.185 7.44C101.638 7.98 101.975 8.60667 102.195 9.32C102.421 10.0333 102.505 10.7967 102.445 11.61H94.2845C94.3645 12.1767 94.5512 12.6833 94.8445 13.13C95.1379 13.57 95.5112 13.92 95.9645 14.18C96.4245 14.44 96.9345 14.5733 97.4945 14.58C98.0945 14.58 98.6379 14.4267 99.1245 14.12C99.6112 13.8067 100.005 13.38 100.305 12.84L102.015 13.24C101.615 14.1267 101.011 14.8533 100.205 15.42C99.3979 15.98 98.4945 16.26 97.4945 16.26ZM94.2345 10.29H100.755C100.701 9.73 100.521 9.22 100.215 8.76C99.9079 8.29333 99.5179 7.92 99.0445 7.64C98.5712 7.36 98.0545 7.22 97.4945 7.22C96.9345 7.22 96.4212 7.35667 95.9545 7.63C95.4879 7.90333 95.1012 8.27333 94.7945 8.74C94.4945 9.2 94.3079 9.71667 94.2345 10.29ZM109.391 16V2H111.071V16H109.391ZM116.928 16.19C116.388 16.17 115.861 16.07 115.348 15.89C114.841 15.7033 114.395 15.4533 114.008 15.14C113.628 14.82 113.351 14.4533 113.178 14.04L114.618 13.42C114.718 13.6467 114.898 13.86 115.158 14.06C115.418 14.26 115.718 14.42 116.058 14.54C116.398 14.66 116.741 14.72 117.088 14.72C117.455 14.72 117.798 14.6633 118.118 14.55C118.438 14.4367 118.698 14.27 118.898 14.05C119.105 13.8233 119.208 13.5533 119.208 13.24C119.208 12.9067 119.095 12.6467 118.868 12.46C118.648 12.2667 118.368 12.1167 118.028 12.01C117.695 11.8967 117.355 11.79 117.008 11.69C116.321 11.5167 115.708 11.31 115.168 11.07C114.628 10.8233 114.201 10.5133 113.888 10.14C113.581 9.76 113.428 9.27667 113.428 8.69C113.428 8.07 113.598 7.53333 113.938 7.08C114.285 6.62667 114.738 6.27667 115.298 6.03C115.858 5.78333 116.458 5.66 117.098 5.66C117.905 5.66 118.641 5.83333 119.308 6.18C119.975 6.52667 120.471 6.99667 120.798 7.59L119.448 8.38C119.335 8.14 119.161 7.93 118.928 7.75C118.695 7.56333 118.428 7.41667 118.128 7.31C117.828 7.20333 117.521 7.14667 117.208 7.14C116.821 7.12667 116.458 7.17667 116.118 7.29C115.785 7.40333 115.515 7.57667 115.308 7.81C115.108 8.03667 115.008 8.32 115.008 8.66C115.008 8.99333 115.115 9.24667 115.328 9.42C115.548 9.59333 115.831 9.73333 116.178 9.84C116.531 9.94 116.915 10.0567 117.328 10.19C117.935 10.3833 118.501 10.6067 119.028 10.86C119.555 11.1133 119.978 11.43 120.298 11.81C120.625 12.19 120.785 12.66 120.778 13.22C120.778 13.8333 120.595 14.37 120.228 14.83C119.861 15.2833 119.385 15.63 118.798 15.87C118.218 16.11 117.595 16.2167 116.928 16.19ZM127.411 16V2H132.241C132.934 2 133.564 2.14333 134.131 2.43C134.704 2.71 135.158 3.12 135.491 3.66C135.824 4.2 135.991 4.84667 135.991 5.6C135.991 6.00667 135.921 6.4 135.781 6.78C135.648 7.15333 135.461 7.47667 135.221 7.75C134.988 8.01667 134.721 8.19667 134.421 8.29C134.841 8.39667 135.198 8.58667 135.491 8.86C135.784 9.12667 136.021 9.44 136.201 9.8C136.388 10.16 136.521 10.5367 136.601 10.93C136.681 11.3233 136.721 11.7033 136.721 12.07C136.721 12.8433 136.544 13.5267 136.191 14.12C135.844 14.7067 135.378 15.1667 134.791 15.5C134.204 15.8333 133.558 16 132.851 16H127.411ZM129.091 14.52H132.701C133.161 14.52 133.578 14.4033 133.951 14.17C134.331 13.93 134.634 13.6033 134.861 13.19C135.088 12.7767 135.201 12.31 135.201 11.79C135.201 11.33 135.088 10.8967 134.861 10.49C134.634 10.0767 134.331 9.74333 133.951 9.49C133.578 9.23667 133.161 9.11 132.701 9.11H129.091V14.52ZM129.091 7.66H132.081C132.694 7.66 133.218 7.48 133.651 7.12C134.091 6.75333 134.311 6.24333 134.311 5.59C134.311 4.88333 134.091 4.35667 133.651 4.01C133.218 3.65667 132.694 3.48 132.081 3.48H129.091V7.66ZM144.44 7.66C144.273 7.56667 144.093 7.49333 143.9 7.44C143.706 7.38667 143.496 7.36 143.27 7.36C142.716 7.36 142.223 7.51 141.79 7.81C141.363 8.11 141.026 8.51667 140.78 9.03C140.533 9.54333 140.41 10.11 140.41 10.73V16H138.72V6H140.4V7.54C140.76 6.98 141.206 6.54 141.74 6.22C142.273 5.89333 142.863 5.73 143.51 5.73C143.73 5.73 143.94 5.74 144.14 5.76C144.34 5.78 144.53 5.82 144.71 5.88L144.44 7.66ZM149.897 16.26C148.977 16.26 148.137 16.0233 147.377 15.55C146.624 15.0767 146.02 14.4433 145.567 13.65C145.12 12.85 144.897 11.9667 144.897 11C144.897 10.2667 145.027 9.58333 145.287 8.95C145.547 8.31 145.904 7.75 146.357 7.27C146.817 6.78333 147.35 6.40333 147.957 6.13C148.564 5.85667 149.21 5.72 149.897 5.72C150.65 5.72 151.34 5.87333 151.967 6.18C152.6 6.48 153.14 6.9 153.587 7.44C154.04 7.98 154.377 8.60667 154.597 9.32C154.824 10.0333 154.907 10.7967 154.847 11.61H146.687C146.767 12.1767 146.954 12.6833 147.247 13.13C147.54 13.57 147.914 13.92 148.367 14.18C148.827 14.44 149.337 14.5733 149.897 14.58C150.497 14.58 151.04 14.4267 151.527 14.12C152.014 13.8067 152.407 13.38 152.707 12.84L154.417 13.24C154.017 14.1267 153.414 14.8533 152.607 15.42C151.8 15.98 150.897 16.26 149.897 16.26ZM146.637 10.29H153.157C153.104 9.73 152.924 9.22 152.617 8.76C152.31 8.29333 151.92 7.92 151.447 7.64C150.974 7.36 150.457 7.22 149.897 7.22C149.337 7.22 148.824 7.35667 148.357 7.63C147.89 7.90333 147.504 8.27333 147.197 8.74C146.897 9.2 146.71 9.71667 146.637 10.29ZM160.65 16H158.95L155.6 6H157.24L159.82 13.63L162.37 6H164.1L166.66 13.63L169.21 6H170.87L167.52 16H165.81L163.22 8.3L160.65 16ZM176.401 16.26C175.481 16.26 174.641 16.0233 173.881 15.55C173.127 15.0767 172.524 14.4433 172.071 13.65C171.624 12.85 171.401 11.9667 171.401 11C171.401 10.2667 171.531 9.58333 171.791 8.95C172.051 8.31 172.407 7.75 172.861 7.27C173.321 6.78333 173.854 6.40333 174.461 6.13C175.067 5.85667 175.714 5.72 176.401 5.72C177.154 5.72 177.844 5.87333 178.471 6.18C179.104 6.48 179.644 6.9 180.091 7.44C180.544 7.98 180.881 8.60667 181.101 9.32C181.327 10.0333 181.411 10.7967 181.351 11.61H173.191C173.271 12.1767 173.457 12.6833 173.751 13.13C174.044 13.57 174.417 13.92 174.871 14.18C175.331 14.44 175.841 14.5733 176.401 14.58C177.001 14.58 177.544 14.4267 178.031 14.12C178.517 13.8067 178.911 13.38 179.211 12.84L180.921 13.24C180.521 14.1267 179.917 14.8533 179.111 15.42C178.304 15.98 177.401 16.26 176.401 16.26ZM173.141 10.29H179.661C179.607 9.73 179.427 9.22 179.121 8.76C178.814 8.29333 178.424 7.92 177.951 7.64C177.477 7.36 176.961 7.22 176.401 7.22C175.841 7.22 175.327 7.35667 174.861 7.63C174.394 7.90333 174.007 8.27333 173.701 8.74C173.401 9.2 173.214 9.71667 173.141 10.29ZM191.047 0.999999H192.727V16H191.047V14.3C190.707 14.8867 190.25 15.36 189.677 15.72C189.104 16.08 188.43 16.26 187.657 16.26C186.93 16.26 186.25 16.1233 185.617 15.85C184.984 15.5767 184.424 15.2 183.937 14.72C183.457 14.2333 183.08 13.6733 182.807 13.04C182.534 12.4067 182.397 11.7267 182.397 11C182.397 10.2733 182.534 9.59333 182.807 8.96C183.08 8.32 183.457 7.76 183.937 7.28C184.424 6.79333 184.984 6.41333 185.617 6.14C186.25 5.86667 186.93 5.73 187.657 5.73C188.43 5.73 189.104 5.91 189.677 6.27C190.25 6.63 190.707 7.10333 191.047 7.69V0.999999ZM187.677 14.63C188.337 14.63 188.907 14.47 189.387 14.15C189.874 13.8233 190.247 13.3833 190.507 12.83C190.774 12.2767 190.907 11.6667 190.907 11C190.907 10.32 190.774 9.70667 190.507 9.16C190.24 8.60667 189.864 8.17 189.377 7.85C188.897 7.52333 188.33 7.36 187.677 7.36C187.017 7.36 186.417 7.52333 185.877 7.85C185.344 8.17667 184.917 8.61667 184.597 9.17C184.277 9.71667 184.117 10.3267 184.117 11C184.117 11.6733 184.28 12.2867 184.607 12.84C184.934 13.3867 185.367 13.8233 185.907 14.15C186.447 14.47 187.037 14.63 187.677 14.63ZM200.009 16V2H204.839C205.532 2 206.162 2.14333 206.729 2.43C207.302 2.71 207.755 3.12 208.089 3.66C208.422 4.2 208.589 4.84667 208.589 5.6C208.589 6.00667 208.519 6.4 208.379 6.78C208.245 7.15333 208.059 7.47667 207.819 7.75C207.585 8.01667 207.319 8.19667 207.019 8.29C207.439 8.39667 207.795 8.58667 208.089 8.86C208.382 9.12667 208.619 9.44 208.799 9.8C208.985 10.16 209.119 10.5367 209.199 10.93C209.279 11.3233 209.319 11.7033 209.319 12.07C209.319 12.8433 209.142 13.5267 208.789 14.12C208.442 14.7067 207.975 15.1667 207.389 15.5C206.802 15.8333 206.155 16 205.449 16H200.009ZM201.689 14.52H205.299C205.759 14.52 206.175 14.4033 206.549 14.17C206.929 13.93 207.232 13.6033 207.459 13.19C207.685 12.7767 207.799 12.31 207.799 11.79C207.799 11.33 207.685 10.8967 207.459 10.49C207.232 10.0767 206.929 9.74333 206.549 9.49C206.175 9.23667 205.759 9.11 205.299 9.11H201.689V14.52ZM201.689 7.66H204.679C205.292 7.66 205.815 7.48 206.249 7.12C206.689 6.75333 206.909 6.24333 206.909 5.59C206.909 4.88333 206.689 4.35667 206.249 4.01C205.815 3.65667 205.292 3.48 204.679 3.48H201.689V7.66ZM217.816 6H219.596L214.126 21H212.346L214.156 16L210.566 6H212.406L214.996 13.69L217.816 6ZM226.395 16V2H234.605V3.68H228.075V7.66H233.645V9.34H228.075V16H226.395ZM235.438 6H237.118V16H235.438V6ZM236.288 4.17C236.028 4.17 235.808 4.08333 235.628 3.91C235.448 3.73667 235.358 3.52 235.358 3.26C235.358 3 235.448 2.78333 235.628 2.61C235.808 2.43667 236.028 2.35 236.288 2.35C236.548 2.35 236.768 2.43667 236.948 2.61C237.128 2.78333 237.218 3 237.218 3.26C237.218 3.52 237.128 3.73667 236.948 3.91C236.768 4.08333 236.548 4.17 236.288 4.17ZM243.12 16.19C242.58 16.17 242.053 16.07 241.54 15.89C241.033 15.7033 240.586 15.4533 240.2 15.14C239.82 14.82 239.543 14.4533 239.37 14.04L240.81 13.42C240.91 13.6467 241.09 13.86 241.35 14.06C241.61 14.26 241.91 14.42 242.25 14.54C242.59 14.66 242.933 14.72 243.28 14.72C243.646 14.72 243.99 14.6633 244.31 14.55C244.63 14.4367 244.89 14.27 245.09 14.05C245.296 13.8233 245.4 13.5533 245.4 13.24C245.4 12.9067 245.286 12.6467 245.06 12.46C244.84 12.2667 244.56 12.1167 244.22 12.01C243.886 11.8967 243.546 11.79 243.2 11.69C242.513 11.5167 241.9 11.31 241.36 11.07C240.82 10.8233 240.393 10.5133 240.08 10.14C239.773 9.76 239.62 9.27667 239.62 8.69C239.62 8.07 239.79 7.53333 240.13 7.08C240.476 6.62667 240.93 6.27667 241.49 6.03C242.05 5.78333 242.65 5.66 243.29 5.66C244.096 5.66 244.833 5.83333 245.5 6.18C246.166 6.52667 246.663 6.99667 246.99 7.59L245.64 8.38C245.526 8.14 245.353 7.93 245.12 7.75C244.886 7.56333 244.62 7.41667 244.32 7.31C244.02 7.20333 243.713 7.14667 243.4 7.14C243.013 7.12667 242.65 7.17667 242.31 7.29C241.976 7.40333 241.706 7.57667 241.5 7.81C241.3 8.03667 241.2 8.32 241.2 8.66C241.2 8.99333 241.306 9.24667 241.52 9.42C241.74 9.59333 242.023 9.73333 242.37 9.84C242.723 9.94 243.106 10.0567 243.52 10.19C244.126 10.3833 244.693 10.6067 245.22 10.86C245.746 11.1133 246.17 11.43 246.49 11.81C246.816 12.19 246.976 12.66 246.97 13.22C246.97 13.8333 246.786 14.37 246.42 14.83C246.053 15.2833 245.576 15.63 244.99 15.87C244.41 16.11 243.786 16.2167 243.12 16.19ZM253.978 7.68H251.708L251.698 16H250.018L250.028 7.68H248.308V6H250.028L250.018 2.86H251.698L251.708 6H253.978V7.68ZM260.745 16V2H265.655C266.408 2 267.085 2.18333 267.685 2.55C268.292 2.91667 268.772 3.41333 269.125 4.04C269.478 4.66 269.655 5.35333 269.655 6.12C269.655 6.79333 269.522 7.40667 269.255 7.96C268.988 8.51333 268.622 8.97667 268.155 9.35C267.695 9.71667 267.172 9.97 266.585 10.11L269.985 16H268.045L264.715 10.25H262.415V16H260.745ZM262.415 8.57H265.495C265.948 8.57 266.362 8.46 266.735 8.24C267.115 8.01333 267.415 7.71 267.635 7.33C267.862 6.94333 267.975 6.51 267.975 6.03C267.975 5.54333 267.862 5.11 267.635 4.73C267.415 4.34333 267.115 4.04 266.735 3.82C266.362 3.59333 265.948 3.48 265.495 3.48H262.415V8.57ZM276.205 16.26C275.285 16.26 274.445 16.0233 273.685 15.55C272.932 15.0767 272.329 14.4433 271.875 13.65C271.429 12.85 271.205 11.9667 271.205 11C271.205 10.2667 271.335 9.58333 271.595 8.95C271.855 8.31 272.212 7.75 272.665 7.27C273.125 6.78333 273.659 6.40333 274.265 6.13C274.872 5.85667 275.519 5.72 276.205 5.72C277.125 5.72 277.962 5.95667 278.715 6.43C279.475 6.90333 280.079 7.54 280.525 8.34C280.979 9.14 281.205 10.0267 281.205 11C281.205 11.7267 281.075 12.4067 280.815 13.04C280.555 13.6733 280.195 14.2333 279.735 14.72C279.282 15.2 278.752 15.5767 278.145 15.85C277.545 16.1233 276.899 16.26 276.205 16.26ZM276.205 14.58C276.832 14.58 277.395 14.4167 277.895 14.09C278.402 13.7567 278.799 13.32 279.085 12.78C279.379 12.2333 279.525 11.64 279.525 11C279.525 10.3467 279.375 9.74667 279.075 9.2C278.782 8.65333 278.385 8.21667 277.885 7.89C277.385 7.56333 276.825 7.4 276.205 7.4C275.579 7.4 275.015 7.56667 274.515 7.9C274.015 8.22667 273.619 8.66333 273.325 9.21C273.032 9.75667 272.885 10.3533 272.885 11C272.885 11.6667 273.035 12.2733 273.335 12.82C273.635 13.36 274.039 13.79 274.545 14.11C275.052 14.4233 275.605 14.58 276.205 14.58ZM290.952 6H292.632V16H290.942L290.882 14.31C290.568 14.89 290.135 15.36 289.582 15.72C289.035 16.08 288.385 16.26 287.632 16.26C286.892 16.26 286.202 16.1233 285.562 15.85C284.922 15.57 284.355 15.1867 283.862 14.7C283.375 14.2067 282.995 13.64 282.722 13C282.448 12.36 282.312 11.67 282.312 10.93C282.312 10.2167 282.445 9.54333 282.712 8.91C282.978 8.27667 283.348 7.72333 283.822 7.25C284.302 6.77 284.855 6.39667 285.482 6.13C286.108 5.85667 286.778 5.72 287.492 5.72C288.285 5.72 288.978 5.90667 289.572 6.28C290.172 6.64667 290.652 7.12333 291.012 7.71L290.952 6ZM287.672 14.63C288.338 14.63 288.912 14.4633 289.392 14.13C289.872 13.7967 290.235 13.35 290.482 12.79C290.735 12.23 290.848 11.61 290.822 10.93C290.795 10.2633 290.638 9.66 290.352 9.12C290.065 8.58 289.678 8.15333 289.192 7.84C288.705 7.52 288.138 7.36 287.492 7.36C286.832 7.36 286.232 7.52667 285.692 7.86C285.152 8.19333 284.728 8.64 284.422 9.2C284.122 9.76 283.985 10.3833 284.012 11.07C284.045 11.73 284.232 12.33 284.572 12.87C284.912 13.41 285.352 13.84 285.892 14.16C286.438 14.4733 287.032 14.63 287.672 14.63ZM298.178 16.19C297.638 16.17 297.111 16.07 296.598 15.89C296.091 15.7033 295.645 15.4533 295.258 15.14C294.878 14.82 294.601 14.4533 294.428 14.04L295.868 13.42C295.968 13.6467 296.148 13.86 296.408 14.06C296.668 14.26 296.968 14.42 297.308 14.54C297.648 14.66 297.991 14.72 298.338 14.72C298.705 14.72 299.048 14.6633 299.368 14.55C299.688 14.4367 299.948 14.27 300.148 14.05C300.355 13.8233 300.458 13.5533 300.458 13.24C300.458 12.9067 300.345 12.6467 300.118 12.46C299.898 12.2667 299.618 12.1167 299.278 12.01C298.945 11.8967 298.605 11.79 298.258 11.69C297.571 11.5167 296.958 11.31 296.418 11.07C295.878 10.8233 295.451 10.5133 295.138 10.14C294.831 9.76 294.678 9.27667 294.678 8.69C294.678 8.07 294.848 7.53333 295.188 7.08C295.535 6.62667 295.988 6.27667 296.548 6.03C297.108 5.78333 297.708 5.66 298.348 5.66C299.155 5.66 299.891 5.83333 300.558 6.18C301.225 6.52667 301.721 6.99667 302.048 7.59L300.698 8.38C300.585 8.14 300.411 7.93 300.178 7.75C299.945 7.56333 299.678 7.41667 299.378 7.31C299.078 7.20333 298.771 7.14667 298.458 7.14C298.071 7.12667 297.708 7.17667 297.368 7.29C297.035 7.40333 296.765 7.57667 296.558 7.81C296.358 8.03667 296.258 8.32 296.258 8.66C296.258 8.99333 296.365 9.24667 296.578 9.42C296.798 9.59333 297.081 9.73333 297.428 9.84C297.781 9.94 298.165 10.0567 298.578 10.19C299.185 10.3833 299.751 10.6067 300.278 10.86C300.805 11.1133 301.228 11.43 301.548 11.81C301.875 12.19 302.035 12.66 302.028 13.22C302.028 13.8333 301.845 14.37 301.478 14.83C301.111 15.2833 300.635 15.63 300.048 15.87C299.468 16.11 298.845 16.2167 298.178 16.19ZM309.036 7.68H306.766L306.756 16H305.076L305.086 7.68H303.366V6H305.086L305.076 2.86H306.756L306.766 6H309.036V7.68ZM310.516 6H312.196V16H310.516V6ZM311.366 4.17C311.106 4.17 310.886 4.08333 310.706 3.91C310.526 3.73667 310.436 3.52 310.436 3.26C310.436 3 310.526 2.78333 310.706 2.61C310.886 2.43667 311.106 2.35 311.366 2.35C311.626 2.35 311.846 2.43667 312.026 2.61C312.206 2.78333 312.296 3 312.296 3.26C312.296 3.52 312.206 3.73667 312.026 3.91C311.846 4.08333 311.626 4.17 311.366 4.17ZM324.086 10.68V16H322.406V10.72C322.406 10.1 322.276 9.53667 322.016 9.03C321.756 8.51667 321.403 8.11 320.956 7.81C320.51 7.50333 320.006 7.35 319.446 7.35C318.893 7.35 318.4 7.50333 317.966 7.81C317.54 8.11 317.203 8.51667 316.956 9.03C316.71 9.53667 316.586 10.1 316.586 10.72V16H314.906V6H316.586V7.54C316.946 6.97333 317.39 6.53 317.916 6.21C318.45 5.88333 319.043 5.72 319.696 5.72C320.563 5.72 321.323 5.94667 321.976 6.4C322.636 6.85333 323.15 7.45667 323.516 8.21C323.89 8.95667 324.08 9.78 324.086 10.68ZM333.795 6H335.475V16.32C335.475 16.98 335.332 17.5933 335.045 18.16C334.765 18.7333 334.385 19.23 333.905 19.65C333.425 20.0767 332.878 20.4067 332.265 20.64C331.652 20.88 331.012 21 330.345 21C329.652 21 328.982 20.8433 328.335 20.53C327.688 20.2233 327.122 19.81 326.635 19.29C326.155 18.7767 325.808 18.2 325.595 17.56L327.135 16.86C327.262 17.32 327.488 17.7333 327.815 18.1C328.148 18.4733 328.535 18.7667 328.975 18.98C329.422 19.2 329.878 19.31 330.345 19.31C330.785 19.31 331.208 19.2333 331.615 19.08C332.028 18.9267 332.398 18.7133 332.725 18.44C333.058 18.1733 333.318 17.8567 333.505 17.49C333.698 17.13 333.795 16.74 333.795 16.32V14.33C333.455 14.9033 333.005 15.37 332.445 15.73C331.892 16.0833 331.245 16.26 330.505 16.26C329.798 16.26 329.135 16.1233 328.515 15.85C327.895 15.5767 327.352 15.2 326.885 14.72C326.418 14.2333 326.052 13.6733 325.785 13.04C325.518 12.4067 325.385 11.7267 325.385 11C325.385 10.2733 325.518 9.59333 325.785 8.96C326.052 8.32 326.418 7.76 326.885 7.28C327.352 6.79333 327.895 6.41333 328.515 6.14C329.135 5.86667 329.798 5.73 330.505 5.73C331.245 5.73 331.892 5.90667 332.445 6.26C333.005 6.61333 333.455 7.08 333.795 7.66V6ZM330.515 14.63C331.162 14.63 331.722 14.4633 332.195 14.13C332.675 13.7967 333.045 13.3533 333.305 12.8C333.565 12.2467 333.695 11.6467 333.695 11C333.695 10.3333 333.562 9.72667 333.295 9.18C333.035 8.62667 332.665 8.18667 332.185 7.86C331.712 7.52667 331.155 7.36 330.515 7.36C329.888 7.36 329.315 7.52333 328.795 7.85C328.275 8.17667 327.862 8.61667 327.555 9.17C327.255 9.71667 327.105 10.3267 327.105 11C327.105 11.6733 327.258 12.2867 327.565 12.84C327.878 13.3867 328.292 13.8233 328.805 14.15C329.325 14.47 329.895 14.63 330.515 14.63ZM353.274 2V3.68H348.614V16H346.934V3.68H342.284V2H353.274ZM363.823 10.69V16H362.143V10.73C362.143 10.11 362.013 9.54333 361.753 9.03C361.5 8.51667 361.153 8.11 360.713 7.81C360.28 7.51 359.8 7.36 359.273 7.36C358.72 7.36 358.233 7.51 357.813 7.81C357.4 8.11 357.077 8.51667 356.843 9.03C356.617 9.54333 356.503 10.11 356.503 10.73V16H354.813V0.999999H356.493V7.4C356.807 6.81333 357.213 6.39 357.713 6.13C358.213 5.86333 358.78 5.73 359.413 5.73C360.287 5.73 361.05 5.95667 361.703 6.41C362.363 6.86333 362.877 7.46667 363.243 8.22C363.617 8.97333 363.81 9.79667 363.823 10.69ZM369.936 16.26C369.016 16.26 368.176 16.0233 367.416 15.55C366.663 15.0767 366.059 14.4433 365.606 13.65C365.159 12.85 364.936 11.9667 364.936 11C364.936 10.2667 365.066 9.58333 365.326 8.95C365.586 8.31 365.943 7.75 366.396 7.27C366.856 6.78333 367.389 6.40333 367.996 6.13C368.603 5.85667 369.249 5.72 369.936 5.72C370.689 5.72 371.379 5.87333 372.006 6.18C372.639 6.48 373.179 6.9 373.626 7.44C374.079 7.98 374.416 8.60667 374.636 9.32C374.863 10.0333 374.946 10.7967 374.886 11.61H366.726C366.806 12.1767 366.993 12.6833 367.286 13.13C367.579 13.57 367.953 13.92 368.406 14.18C368.866 14.44 369.376 14.5733 369.936 14.58C370.536 14.58 371.079 14.4267 371.566 14.12C372.053 13.8067 372.446 13.38 372.746 12.84L374.456 13.24C374.056 14.1267 373.453 14.8533 372.646 15.42C371.839 15.98 370.936 16.26 369.936 16.26ZM366.676 10.29H373.196C373.143 9.73 372.963 9.22 372.656 8.76C372.349 8.29333 371.959 7.92 371.486 7.64C371.013 7.36 370.496 7.22 369.936 7.22C369.376 7.22 368.863 7.35667 368.396 7.63C367.929 7.90333 367.543 8.27333 367.236 8.74C366.936 9.2 366.749 9.71667 366.676 10.29ZM387.822 16.26C386.855 16.26 385.952 16.0733 385.112 15.7C384.279 15.32 383.549 14.7967 382.922 14.13C382.302 13.4567 381.815 12.6833 381.462 11.81C381.109 10.93 380.932 9.99 380.932 8.99C380.932 7.95667 381.115 7 381.482 6.12C381.855 5.24 382.362 4.47333 383.002 3.82C383.649 3.16667 384.385 2.66 385.212 2.3C386.045 1.93333 386.925 1.75 387.852 1.75C388.905 1.75 389.909 1.99667 390.862 2.49C391.815 2.98333 392.635 3.69667 393.322 4.63L391.822 5.44C391.309 4.78667 390.699 4.28667 389.992 3.94C389.292 3.59333 388.572 3.42 387.832 3.42C387.125 3.42 386.455 3.56333 385.822 3.85C385.195 4.13667 384.639 4.53667 384.152 5.05C383.672 5.56333 383.295 6.15667 383.022 6.83C382.749 7.50333 382.612 8.23333 382.612 9.02C382.612 9.78667 382.749 10.5067 383.022 11.18C383.295 11.8533 383.669 12.4467 384.142 12.96C384.622 13.4667 385.179 13.8633 385.812 14.15C386.445 14.4367 387.122 14.58 387.842 14.58C388.415 14.58 388.959 14.4833 389.472 14.29C389.992 14.0967 390.469 13.8233 390.902 13.47C391.342 13.1167 391.715 12.7 392.022 12.22C392.335 11.74 392.572 11.2133 392.732 10.64H389.282V9.14H394.692C394.685 10.12 394.499 11.04 394.132 11.9C393.772 12.76 393.275 13.5167 392.642 14.17C392.015 14.8233 391.289 15.3367 390.462 15.71C389.642 16.0767 388.762 16.26 387.822 16.26ZM402.174 7.66C402.007 7.56667 401.827 7.49333 401.634 7.44C401.441 7.38667 401.231 7.36 401.004 7.36C400.451 7.36 399.957 7.51 399.524 7.81C399.097 8.11 398.761 8.51667 398.514 9.03C398.267 9.54333 398.144 10.11 398.144 10.73V16H396.454V6H398.134V7.54C398.494 6.98 398.941 6.54 399.474 6.22C400.007 5.89333 400.597 5.73 401.244 5.73C401.464 5.73 401.674 5.74 401.874 5.76C402.074 5.78 402.264 5.82 402.444 5.88L402.174 7.66ZM407.631 16.26C406.711 16.26 405.871 16.0233 405.111 15.55C404.358 15.0767 403.755 14.4433 403.301 13.65C402.855 12.85 402.631 11.9667 402.631 11C402.631 10.2667 402.761 9.58333 403.021 8.95C403.281 8.31 403.638 7.75 404.091 7.27C404.551 6.78333 405.085 6.40333 405.691 6.13C406.298 5.85667 406.945 5.72 407.631 5.72C408.385 5.72 409.075 5.87333 409.701 6.18C410.335 6.48 410.875 6.9 411.321 7.44C411.775 7.98 412.111 8.60667 412.331 9.32C412.558 10.0333 412.641 10.7967 412.581 11.61H404.421C404.501 12.1767 404.688 12.6833 404.981 13.13C405.275 13.57 405.648 13.92 406.101 14.18C406.561 14.44 407.071 14.5733 407.631 14.58C408.231 14.58 408.775 14.4267 409.261 14.12C409.748 13.8067 410.141 13.38 410.441 12.84L412.151 13.24C411.751 14.1267 411.148 14.8533 410.341 15.42C409.535 15.98 408.631 16.26 407.631 16.26ZM404.371 10.29H410.891C410.838 9.73 410.658 9.22 410.351 8.76C410.045 8.29333 409.655 7.92 409.181 7.64C408.708 7.36 408.191 7.22 407.631 7.22C407.071 7.22 406.558 7.35667 406.091 7.63C405.625 7.90333 405.238 8.27333 404.931 8.74C404.631 9.2 404.445 9.71667 404.371 10.29ZM418.627 16.26C417.707 16.26 416.867 16.0233 416.107 15.55C415.354 15.0767 414.751 14.4433 414.297 13.65C413.851 12.85 413.627 11.9667 413.627 11C413.627 10.2667 413.757 9.58333 414.017 8.95C414.277 8.31 414.634 7.75 415.087 7.27C415.547 6.78333 416.081 6.40333 416.687 6.13C417.294 5.85667 417.941 5.72 418.627 5.72C419.381 5.72 420.071 5.87333 420.697 6.18C421.331 6.48 421.871 6.9 422.317 7.44C422.771 7.98 423.107 8.60667 423.327 9.32C423.554 10.0333 423.637 10.7967 423.577 11.61H415.417C415.497 12.1767 415.684 12.6833 415.977 13.13C416.271 13.57 416.644 13.92 417.097 14.18C417.557 14.44 418.067 14.5733 418.627 14.58C419.227 14.58 419.771 14.4267 420.257 14.12C420.744 13.8067 421.137 13.38 421.437 12.84L423.147 13.24C422.747 14.1267 422.144 14.8533 421.337 15.42C420.531 15.98 419.627 16.26 418.627 16.26ZM415.367 10.29H421.887C421.834 9.73 421.654 9.22 421.347 8.76C421.041 8.29333 420.651 7.92 420.177 7.64C419.704 7.36 419.187 7.22 418.627 7.22C418.067 7.22 417.554 7.35667 417.087 7.63C416.621 7.90333 416.234 8.27333 415.927 8.74C415.627 9.2 415.441 9.71667 415.367 10.29ZM434.262 10.68V16H432.582V10.72C432.582 10.1 432.452 9.53667 432.192 9.03C431.932 8.51667 431.579 8.11 431.132 7.81C430.685 7.50333 430.182 7.35 429.622 7.35C429.069 7.35 428.575 7.50333 428.142 7.81C427.715 8.11 427.379 8.51667 427.132 9.03C426.885 9.53667 426.762 10.1 426.762 10.72V16H425.082V6H426.762V7.54C427.122 6.97333 427.565 6.53 428.092 6.21C428.625 5.88333 429.219 5.72 429.872 5.72C430.739 5.72 431.499 5.94667 432.152 6.4C432.812 6.85333 433.325 7.45667 433.692 8.21C434.065 8.95667 434.255 9.78 434.262 10.68ZM447.539 16.26C446.592 16.26 445.702 16.0733 444.869 15.7C444.035 15.32 443.302 14.8 442.669 14.14C442.042 13.4733 441.549 12.7 441.189 11.82C440.835 10.94 440.659 10 440.659 9C440.659 8 440.835 7.06 441.189 6.18C441.549 5.3 442.042 4.53 442.669 3.87C443.302 3.20333 444.035 2.68333 444.869 2.31C445.702 1.93 446.592 1.74 447.539 1.74C448.672 1.74 449.715 2.00333 450.669 2.53C451.622 3.05667 452.412 3.75667 453.039 4.63L451.549 5.43C451.082 4.81667 450.492 4.33 449.779 3.97C449.072 3.60333 448.325 3.42 447.539 3.42C446.812 3.42 446.132 3.56667 445.499 3.86C444.872 4.15333 444.322 4.55667 443.849 5.07C443.375 5.58333 443.005 6.17667 442.739 6.85C442.472 7.52333 442.339 8.24 442.339 9C442.339 9.76667 442.472 10.4867 442.739 11.16C443.012 11.8333 443.385 12.4267 443.859 12.94C444.339 13.4533 444.892 13.8567 445.519 14.15C446.152 14.4367 446.825 14.58 447.539 14.58C448.352 14.58 449.105 14.3967 449.799 14.03C450.499 13.6567 451.082 13.17 451.549 12.57L453.039 13.38C452.412 14.2533 451.622 14.9533 450.669 15.48C449.715 16 448.672 16.26 447.539 16.26ZM458.92 16.26C458 16.26 457.16 16.0233 456.4 15.55C455.647 15.0767 455.044 14.4433 454.59 13.65C454.144 12.85 453.92 11.9667 453.92 11C453.92 10.2667 454.05 9.58333 454.31 8.95C454.57 8.31 454.927 7.75 455.38 7.27C455.84 6.78333 456.374 6.40333 456.98 6.13C457.587 5.85667 458.234 5.72 458.92 5.72C459.84 5.72 460.677 5.95667 461.43 6.43C462.19 6.90333 462.794 7.54 463.24 8.34C463.694 9.14 463.92 10.0267 463.92 11C463.92 11.7267 463.79 12.4067 463.53 13.04C463.27 13.6733 462.91 14.2333 462.45 14.72C461.997 15.2 461.467 15.5767 460.86 15.85C460.26 16.1233 459.614 16.26 458.92 16.26ZM458.92 14.58C459.547 14.58 460.11 14.4167 460.61 14.09C461.117 13.7567 461.514 13.32 461.8 12.78C462.094 12.2333 462.24 11.64 462.24 11C462.24 10.3467 462.09 9.74667 461.79 9.2C461.497 8.65333 461.1 8.21667 460.6 7.89C460.1 7.56333 459.54 7.4 458.92 7.4C458.294 7.4 457.73 7.56667 457.23 7.9C456.73 8.22667 456.334 8.66333 456.04 9.21C455.747 9.75667 455.6 10.3533 455.6 11C455.6 11.6667 455.75 12.2733 456.05 12.82C456.35 13.36 456.754 13.79 457.26 14.11C457.767 14.4233 458.32 14.58 458.92 14.58ZM467.982 3.53V6H470.912V7.68H467.982V16H466.302V7.68H465.012V6H466.302V3.53C466.302 3.01667 466.425 2.55333 466.672 2.14C466.925 1.72 467.262 1.38667 467.682 1.14C468.108 0.886666 468.575 0.76 469.082 0.76C469.455 0.76 469.818 0.836666 470.172 0.99C470.525 1.13667 470.838 1.35667 471.112 1.65L469.912 2.84C469.818 2.71333 469.695 2.61667 469.542 2.55C469.395 2.47667 469.242 2.44 469.082 2.44C468.782 2.44 468.522 2.54667 468.302 2.76C468.088 2.97333 467.982 3.23 467.982 3.53ZM475.033 3.53V6H477.963V7.68H475.033V16H473.353V7.68H472.063V6H473.353V3.53C473.353 3.01667 473.476 2.55333 473.723 2.14C473.976 1.72 474.313 1.38667 474.733 1.14C475.159 0.886666 475.626 0.76 476.133 0.76C476.506 0.76 476.869 0.836666 477.223 0.99C477.576 1.13667 477.889 1.35667 478.163 1.65L476.963 2.84C476.869 2.71333 476.746 2.61667 476.593 2.55C476.446 2.47667 476.293 2.44 476.133 2.44C475.833 2.44 475.573 2.54667 475.353 2.76C475.139 2.97333 475.033 3.23 475.033 3.53ZM483.764 16.26C482.844 16.26 482.004 16.0233 481.244 15.55C480.491 15.0767 479.887 14.4433 479.434 13.65C478.987 12.85 478.764 11.9667 478.764 11C478.764 10.2667 478.894 9.58333 479.154 8.95C479.414 8.31 479.771 7.75 480.224 7.27C480.684 6.78333 481.217 6.40333 481.824 6.13C482.431 5.85667 483.077 5.72 483.764 5.72C484.517 5.72 485.207 5.87333 485.834 6.18C486.467 6.48 487.007 6.9 487.454 7.44C487.907 7.98 488.244 8.60667 488.464 9.32C488.691 10.0333 488.774 10.7967 488.714 11.61H480.554C480.634 12.1767 480.821 12.6833 481.114 13.13C481.407 13.57 481.781 13.92 482.234 14.18C482.694 14.44 483.204 14.5733 483.764 14.58C484.364 14.58 484.907 14.4267 485.394 14.12C485.881 13.8067 486.274 13.38 486.574 12.84L488.284 13.24C487.884 14.1267 487.281 14.8533 486.474 15.42C485.667 15.98 484.764 16.26 483.764 16.26ZM480.504 10.29H487.024C486.971 9.73 486.791 9.22 486.484 8.76C486.177 8.29333 485.787 7.92 485.314 7.64C484.841 7.36 484.324 7.22 483.764 7.22C483.204 7.22 482.691 7.35667 482.224 7.63C481.757 7.90333 481.371 8.27333 481.064 8.74C480.764 9.2 480.577 9.71667 480.504 10.29ZM494.76 16.26C493.84 16.26 493 16.0233 492.24 15.55C491.487 15.0767 490.883 14.4433 490.43 13.65C489.983 12.85 489.76 11.9667 489.76 11C489.76 10.2667 489.89 9.58333 490.15 8.95C490.41 8.31 490.767 7.75 491.22 7.27C491.68 6.78333 492.213 6.40333 492.82 6.13C493.427 5.85667 494.073 5.72 494.76 5.72C495.513 5.72 496.203 5.87333 496.83 6.18C497.463 6.48 498.003 6.9 498.45 7.44C498.903 7.98 499.24 8.60667 499.46 9.32C499.687 10.0333 499.77 10.7967 499.71 11.61H491.55C491.63 12.1767 491.817 12.6833 492.11 13.13C492.403 13.57 492.777 13.92 493.23 14.18C493.69 14.44 494.2 14.5733 494.76 14.58C495.36 14.58 495.903 14.4267 496.39 14.12C496.877 13.8067 497.27 13.38 497.57 12.84L499.28 13.24C498.88 14.1267 498.277 14.8533 497.47 15.42C496.663 15.98 495.76 16.26 494.76 16.26ZM491.5 10.29H498.02C497.967 9.73 497.787 9.22 497.48 8.76C497.173 8.29333 496.783 7.92 496.31 7.64C495.837 7.36 495.32 7.22 494.76 7.22C494.2 7.22 493.687 7.35667 493.22 7.63C492.753 7.90333 492.367 8.27333 492.06 8.74C491.76 9.2 491.573 9.71667 491.5 10.29ZM1.2 52V38H6.03C6.72333 38 7.35333 38.1433 7.92 38.43C8.49333 38.71 8.94667 39.12 9.28 39.66C9.61333 40.2 9.78 40.8467 9.78 41.6C9.78 42.0067 9.71 42.4 9.57 42.78C9.43667 43.1533 9.25 43.4767 9.01 43.75C8.77667 44.0167 8.51 44.1967 8.21 44.29C8.63 44.3967 8.98667 44.5867 9.28 44.86C9.57333 45.1267 9.81 45.44 9.99 45.8C10.1767 46.16 10.31 46.5367 10.39 46.93C10.47 47.3233 10.51 47.7033 10.51 48.07C10.51 48.8433 10.3333 49.5267 9.98 50.12C9.63333 50.7067 9.16667 51.1667 8.58 51.5C7.99333 51.8333 7.34667 52 6.64 52H1.2ZM2.88 50.52H6.49C6.95 50.52 7.36667 50.4033 7.74 50.17C8.12 49.93 8.42333 49.6033 8.65 49.19C8.87667 48.7767 8.99 48.31 8.99 47.79C8.99 47.33 8.87667 46.8967 8.65 46.49C8.42333 46.0767 8.12 45.7433 7.74 45.49C7.36667 45.2367 6.95 45.11 6.49 45.11H2.88V50.52ZM2.88 43.66H5.87C6.48333 43.66 7.00667 43.48 7.44 43.12C7.88 42.7533 8.1 42.2433 8.1 41.59C8.1 40.8833 7.88 40.3567 7.44 40.01C7.00667 39.6567 6.48333 39.48 5.87 39.48H2.88V43.66ZM16.9086 52.26C15.9886 52.26 15.1486 52.0233 14.3886 51.55C13.6353 51.0767 13.0319 50.4433 12.5786 49.65C12.1319 48.85 11.9086 47.9667 11.9086 47C11.9086 46.2667 12.0386 45.5833 12.2986 44.95C12.5586 44.31 12.9153 43.75 13.3686 43.27C13.8286 42.7833 14.3619 42.4033 14.9686 42.13C15.5753 41.8567 16.2219 41.72 16.9086 41.72C17.6619 41.72 18.3519 41.8733 18.9786 42.18C19.6119 42.48 20.1519 42.9 20.5986 43.44C21.0519 43.98 21.3886 44.6067 21.6086 45.32C21.8353 46.0333 21.9186 46.7967 21.8586 47.61H13.6986C13.7786 48.1767 13.9653 48.6833 14.2586 49.13C14.5519 49.57 14.9253 49.92 15.3786 50.18C15.8386 50.44 16.3486 50.5733 16.9086 50.58C17.5086 50.58 18.0519 50.4267 18.5386 50.12C19.0253 49.8067 19.4186 49.38 19.7186 48.84L21.4286 49.24C21.0286 50.1267 20.4253 50.8533 19.6186 51.42C18.8119 51.98 17.9086 52.26 16.9086 52.26ZM13.6486 46.29H20.1686C20.1153 45.73 19.9353 45.22 19.6286 44.76C19.3219 44.2933 18.9319 43.92 18.4586 43.64C17.9853 43.36 17.4686 43.22 16.9086 43.22C16.3486 43.22 15.8353 43.3567 15.3686 43.63C14.9019 43.9033 14.5153 44.2733 14.2086 44.74C13.9086 45.2 13.7219 45.7167 13.6486 46.29ZM31.6547 42H33.3347V52H31.6447L31.5847 50.31C31.2714 50.89 30.838 51.36 30.2847 51.72C29.738 52.08 29.088 52.26 28.3347 52.26C27.5947 52.26 26.9047 52.1233 26.2647 51.85C25.6247 51.57 25.058 51.1867 24.5647 50.7C24.078 50.2067 23.698 49.64 23.4247 49C23.1514 48.36 23.0147 47.67 23.0147 46.93C23.0147 46.2167 23.148 45.5433 23.4147 44.91C23.6814 44.2767 24.0514 43.7233 24.5247 43.25C25.0047 42.77 25.558 42.3967 26.1847 42.13C26.8114 41.8567 27.4814 41.72 28.1947 41.72C28.988 41.72 29.6814 41.9067 30.2747 42.28C30.8747 42.6467 31.3547 43.1233 31.7147 43.71L31.6547 42ZM28.3747 50.63C29.0414 50.63 29.6147 50.4633 30.0947 50.13C30.5747 49.7967 30.938 49.35 31.1847 48.79C31.438 48.23 31.5514 47.61 31.5247 46.93C31.498 46.2633 31.3414 45.66 31.0547 45.12C30.768 44.58 30.3814 44.1533 29.8947 43.84C29.408 43.52 28.8414 43.36 28.1947 43.36C27.5347 43.36 26.9347 43.5267 26.3947 43.86C25.8547 44.1933 25.4314 44.64 25.1247 45.2C24.8247 45.76 24.688 46.3833 24.7147 47.07C24.748 47.73 24.9347 48.33 25.2747 48.87C25.6147 49.41 26.0547 49.84 26.5947 50.16C27.1414 50.4733 27.7347 50.63 28.3747 50.63ZM44.7113 46.68V52H43.0313V46.72C43.0313 46.1 42.9013 45.5367 42.6413 45.03C42.3813 44.5167 42.0279 44.11 41.5813 43.81C41.1346 43.5033 40.6313 43.35 40.0713 43.35C39.5179 43.35 39.0246 43.5033 38.5913 43.81C38.1646 44.11 37.8279 44.5167 37.5813 45.03C37.3346 45.5367 37.2113 46.1 37.2113 46.72V52H35.5313V42H37.2113V43.54C37.5713 42.9733 38.0146 42.53 38.5413 42.21C39.0746 41.8833 39.6679 41.72 40.3213 41.72C41.1879 41.72 41.9479 41.9467 42.6013 42.4C43.2613 42.8533 43.7746 43.4567 44.1413 44.21C44.5146 44.9567 44.7046 45.78 44.7113 46.68ZM50.0531 52.19C49.5131 52.17 48.9865 52.07 48.4731 51.89C47.9665 51.7033 47.5198 51.4533 47.1331 51.14C46.7531 50.82 46.4765 50.4533 46.3031 50.04L47.7431 49.42C47.8431 49.6467 48.0231 49.86 48.2831 50.06C48.5431 50.26 48.8431 50.42 49.1831 50.54C49.5231 50.66 49.8665 50.72 50.2131 50.72C50.5798 50.72 50.9231 50.6633 51.2431 50.55C51.5631 50.4367 51.8231 50.27 52.0231 50.05C52.2298 49.8233 52.3331 49.5533 52.3331 49.24C52.3331 48.9067 52.2198 48.6467 51.9931 48.46C51.7731 48.2667 51.4931 48.1167 51.1531 48.01C50.8198 47.8967 50.4798 47.79 50.1331 47.69C49.4465 47.5167 48.8331 47.31 48.2931 47.07C47.7531 46.8233 47.3265 46.5133 47.0131 46.14C46.7065 45.76 46.5531 45.2767 46.5531 44.69C46.5531 44.07 46.7231 43.5333 47.0631 43.08C47.4098 42.6267 47.8631 42.2767 48.4231 42.03C48.9831 41.7833 49.5831 41.66 50.2231 41.66C51.0298 41.66 51.7665 41.8333 52.4331 42.18C53.0998 42.5267 53.5965 42.9967 53.9231 43.59L52.5731 44.38C52.4598 44.14 52.2865 43.93 52.0531 43.75C51.8198 43.5633 51.5531 43.4167 51.2531 43.31C50.9531 43.2033 50.6465 43.1467 50.3331 43.14C49.9465 43.1267 49.5831 43.1767 49.2431 43.29C48.9098 43.4033 48.6398 43.5767 48.4331 43.81C48.2331 44.0367 48.1331 44.32 48.1331 44.66C48.1331 44.9933 48.2398 45.2467 48.4531 45.42C48.6731 45.5933 48.9565 45.7333 49.3031 45.84C49.6565 45.94 50.0398 46.0567 50.4531 46.19C51.0598 46.3833 51.6265 46.6067 52.1531 46.86C52.6798 47.1133 53.1031 47.43 53.4231 47.81C53.7498 48.19 53.9098 48.66 53.9031 49.22C53.9031 49.8333 53.7198 50.37 53.3531 50.83C52.9865 51.2833 52.5098 51.63 51.9231 51.87C51.3431 52.11 50.7198 52.2167 50.0531 52.19ZM67.0359 52.26C66.0893 52.26 65.1993 52.0733 64.3659 51.7C63.5326 51.32 62.7993 50.7967 62.1659 50.13C61.5326 49.4633 61.0359 48.6933 60.6759 47.82C60.3159 46.94 60.1359 46 60.1359 45C60.1359 44 60.3159 43.0633 60.6759 42.19C61.0359 41.31 61.5326 40.5367 62.1659 39.87C62.7993 39.2033 63.5326 38.6833 64.3659 38.31C65.1993 37.93 66.0893 37.74 67.0359 37.74C67.9893 37.74 68.8826 37.93 69.7159 38.31C70.5493 38.6833 71.2826 39.2033 71.9159 39.87C72.5493 40.5367 73.0426 41.31 73.3959 42.19C73.7559 43.0633 73.9359 44 73.9359 45C73.9359 46 73.7559 46.94 73.3959 47.82C73.0426 48.6933 72.5493 49.4633 71.9159 50.13C71.2826 50.7967 70.5493 51.32 69.7159 51.7C68.8826 52.0733 67.9893 52.26 67.0359 52.26ZM67.0359 50.58C67.7626 50.58 68.4393 50.4333 69.0659 50.14C69.6993 49.8467 70.2526 49.4433 70.7259 48.93C71.2059 48.41 71.5793 47.8167 71.8459 47.15C72.1193 46.4767 72.2559 45.76 72.2559 45C72.2559 44.24 72.1193 43.5233 71.8459 42.85C71.5726 42.17 71.1959 41.5767 70.7159 41.07C70.2426 40.5567 69.6893 40.1533 69.0559 39.86C68.4293 39.5667 67.7559 39.42 67.0359 39.42C66.3093 39.42 65.6293 39.5667 64.9959 39.86C64.3693 40.1533 63.8159 40.56 63.3359 41.08C62.8626 41.5933 62.4893 42.1867 62.2159 42.86C61.9493 43.5267 61.8159 44.24 61.8159 45C61.8159 45.7667 61.9526 46.4867 62.2259 47.16C62.4993 47.8333 62.8726 48.4267 63.3459 48.94C63.8259 49.4533 64.3793 49.8567 65.0059 50.15C65.6393 50.4367 66.3159 50.58 67.0359 50.58ZM80.7359 52H78.5859L74.9359 41.98H76.7259L79.6559 50.05L82.5859 41.98H84.3759L80.7359 52ZM89.9164 52.26C88.9964 52.26 88.1564 52.0233 87.3964 51.55C86.6431 51.0767 86.0397 50.4433 85.5864 49.65C85.1397 48.85 84.9164 47.9667 84.9164 47C84.9164 46.2667 85.0464 45.5833 85.3064 44.95C85.5664 44.31 85.9231 43.75 86.3764 43.27C86.8364 42.7833 87.3697 42.4033 87.9764 42.13C88.5831 41.8567 89.2297 41.72 89.9164 41.72C90.6697 41.72 91.3597 41.8733 91.9864 42.18C92.6197 42.48 93.1597 42.9 93.6064 43.44C94.0597 43.98 94.3964 44.6067 94.6164 45.32C94.8431 46.0333 94.9264 46.7967 94.8664 47.61H86.7064C86.7864 48.1767 86.9731 48.6833 87.2664 49.13C87.5597 49.57 87.9331 49.92 88.3864 50.18C88.8464 50.44 89.3564 50.5733 89.9164 50.58C90.5164 50.58 91.0597 50.4267 91.5464 50.12C92.0331 49.8067 92.4264 49.38 92.7264 48.84L94.4364 49.24C94.0364 50.1267 93.4331 50.8533 92.6264 51.42C91.8197 51.98 90.9164 52.26 89.9164 52.26ZM86.6564 46.29H93.1764C93.1231 45.73 92.9431 45.22 92.6364 44.76C92.3297 44.2933 91.9397 43.92 91.4664 43.64C90.9931 43.36 90.4764 43.22 89.9164 43.22C89.3564 43.22 88.8431 43.3567 88.3764 43.63C87.9097 43.9033 87.5231 44.2733 87.2164 44.74C86.9164 45.2 86.7297 45.7167 86.6564 46.29ZM102.291 43.66C102.124 43.5667 101.944 43.4933 101.751 43.44C101.558 43.3867 101.348 43.36 101.121 43.36C100.568 43.36 100.074 43.51 99.6411 43.81C99.2144 44.11 98.8778 44.5167 98.6311 45.03C98.3844 45.5433 98.2611 46.11 98.2611 46.73V52H96.5711V42H98.2511V43.54C98.6111 42.98 99.0578 42.54 99.5911 42.22C100.124 41.8933 100.714 41.73 101.361 41.73C101.581 41.73 101.791 41.74 101.991 41.76C102.191 41.78 102.381 41.82 102.561 41.88L102.291 43.66ZM117.466 38H119.146V52H117.466V45.34H110.536V52H108.856V38H110.536V43.66H117.466V38ZM125.717 52.26C124.797 52.26 123.957 52.0233 123.197 51.55C122.444 51.0767 121.841 50.4433 121.387 49.65C120.941 48.85 120.717 47.9667 120.717 47C120.717 46.2667 120.847 45.5833 121.107 44.95C121.367 44.31 121.724 43.75 122.177 43.27C122.637 42.7833 123.171 42.4033 123.777 42.13C124.384 41.8567 125.031 41.72 125.717 41.72C126.637 41.72 127.474 41.9567 128.227 42.43C128.987 42.9033 129.591 43.54 130.037 44.34C130.491 45.14 130.717 46.0267 130.717 47C130.717 47.7267 130.587 48.4067 130.327 49.04C130.067 49.6733 129.707 50.2333 129.247 50.72C128.794 51.2 128.264 51.5767 127.657 51.85C127.057 52.1233 126.411 52.26 125.717 52.26ZM125.717 50.58C126.344 50.58 126.907 50.4167 127.407 50.09C127.914 49.7567 128.311 49.32 128.597 48.78C128.891 48.2333 129.037 47.64 129.037 47C129.037 46.3467 128.887 45.7467 128.587 45.2C128.294 44.6533 127.897 44.2167 127.397 43.89C126.897 43.5633 126.337 43.4 125.717 43.4C125.091 43.4 124.527 43.5667 124.027 43.9C123.527 44.2267 123.131 44.6633 122.837 45.21C122.544 45.7567 122.397 46.3533 122.397 47C122.397 47.6667 122.547 48.2733 122.847 48.82C123.147 49.36 123.551 49.79 124.057 50.11C124.564 50.4233 125.117 50.58 125.717 50.58ZM137.415 43.68H135.145L135.135 52H133.455L133.465 43.68H131.745V42H133.465L133.455 38.86H135.135L135.145 42H137.415V43.68ZM150.293 52.26C149.346 52.26 148.456 52.0733 147.623 51.7C146.789 51.32 146.056 50.8 145.423 50.14C144.796 49.4733 144.303 48.7 143.943 47.82C143.589 46.94 143.413 46 143.413 45C143.413 44 143.589 43.06 143.943 42.18C144.303 41.3 144.796 40.53 145.423 39.87C146.056 39.2033 146.789 38.6833 147.623 38.31C148.456 37.93 149.346 37.74 150.293 37.74C151.426 37.74 152.469 38.0033 153.423 38.53C154.376 39.0567 155.166 39.7567 155.793 40.63L154.303 41.43C153.836 40.8167 153.246 40.33 152.533 39.97C151.826 39.6033 151.079 39.42 150.293 39.42C149.566 39.42 148.886 39.5667 148.253 39.86C147.626 40.1533 147.076 40.5567 146.603 41.07C146.129 41.5833 145.759 42.1767 145.493 42.85C145.226 43.5233 145.093 44.24 145.093 45C145.093 45.7667 145.226 46.4867 145.493 47.16C145.766 47.8333 146.139 48.4267 146.613 48.94C147.093 49.4533 147.646 49.8567 148.273 50.15C148.906 50.4367 149.579 50.58 150.293 50.58C151.106 50.58 151.859 50.3967 152.553 50.03C153.253 49.6567 153.836 49.17 154.303 48.57L155.793 49.38C155.166 50.2533 154.376 50.9533 153.423 51.48C152.469 52 151.426 52.26 150.293 52.26ZM161.674 52.26C160.754 52.26 159.914 52.0233 159.154 51.55C158.401 51.0767 157.798 50.4433 157.344 49.65C156.898 48.85 156.674 47.9667 156.674 47C156.674 46.2667 156.804 45.5833 157.064 44.95C157.324 44.31 157.681 43.75 158.134 43.27C158.594 42.7833 159.128 42.4033 159.734 42.13C160.341 41.8567 160.988 41.72 161.674 41.72C162.594 41.72 163.431 41.9567 164.184 42.43C164.944 42.9033 165.548 43.54 165.994 44.34C166.448 45.14 166.674 46.0267 166.674 47C166.674 47.7267 166.544 48.4067 166.284 49.04C166.024 49.6733 165.664 50.2333 165.204 50.72C164.751 51.2 164.221 51.5767 163.614 51.85C163.014 52.1233 162.368 52.26 161.674 52.26ZM161.674 50.58C162.301 50.58 162.864 50.4167 163.364 50.09C163.871 49.7567 164.268 49.32 164.554 48.78C164.848 48.2333 164.994 47.64 164.994 47C164.994 46.3467 164.844 45.7467 164.544 45.2C164.251 44.6533 163.854 44.2167 163.354 43.89C162.854 43.5633 162.294 43.4 161.674 43.4C161.048 43.4 160.484 43.5667 159.984 43.9C159.484 44.2267 159.088 44.6633 158.794 45.21C158.501 45.7567 158.354 46.3533 158.354 47C158.354 47.6667 158.504 48.2733 158.804 48.82C159.104 49.36 159.508 49.79 160.014 50.11C160.521 50.4233 161.074 50.58 161.674 50.58ZM176.42 42H178.1V52H176.41L176.35 50.31C176.037 50.89 175.604 51.36 175.05 51.72C174.504 52.08 173.854 52.26 173.1 52.26C172.36 52.26 171.67 52.1233 171.03 51.85C170.39 51.57 169.824 51.1867 169.33 50.7C168.844 50.2067 168.464 49.64 168.19 49C167.917 48.36 167.78 47.67 167.78 46.93C167.78 46.2167 167.914 45.5433 168.18 44.91C168.447 44.2767 168.817 43.7233 169.29 43.25C169.77 42.77 170.324 42.3967 170.95 42.13C171.577 41.8567 172.247 41.72 172.96 41.72C173.754 41.72 174.447 41.9067 175.04 42.28C175.64 42.6467 176.12 43.1233 176.48 43.71L176.42 42ZM173.14 50.63C173.807 50.63 174.38 50.4633 174.86 50.13C175.34 49.7967 175.704 49.35 175.95 48.79C176.204 48.23 176.317 47.61 176.29 46.93C176.264 46.2633 176.107 45.66 175.82 45.12C175.534 44.58 175.147 44.1533 174.66 43.84C174.174 43.52 173.607 43.36 172.96 43.36C172.3 43.36 171.7 43.5267 171.16 43.86C170.62 44.1933 170.197 44.64 169.89 45.2C169.59 45.76 169.454 46.3833 169.48 47.07C169.514 47.73 169.7 48.33 170.04 48.87C170.38 49.41 170.82 49.84 171.36 50.16C171.907 50.4733 172.5 50.63 173.14 50.63ZM180.667 52V37H182.337V52H180.667ZM188.061 52.19C187.521 52.17 186.994 52.07 186.481 51.89C185.974 51.7033 185.528 51.4533 185.141 51.14C184.761 50.82 184.484 50.4533 184.311 50.04L185.751 49.42C185.851 49.6467 186.031 49.86 186.291 50.06C186.551 50.26 186.851 50.42 187.191 50.54C187.531 50.66 187.874 50.72 188.221 50.72C188.588 50.72 188.931 50.6633 189.251 50.55C189.571 50.4367 189.831 50.27 190.031 50.05C190.238 49.8233 190.341 49.5533 190.341 49.24C190.341 48.9067 190.228 48.6467 190.001 48.46C189.781 48.2667 189.501 48.1167 189.161 48.01C188.828 47.8967 188.488 47.79 188.141 47.69C187.454 47.5167 186.841 47.31 186.301 47.07C185.761 46.8233 185.334 46.5133 185.021 46.14C184.714 45.76 184.561 45.2767 184.561 44.69C184.561 44.07 184.731 43.5333 185.071 43.08C185.418 42.6267 185.871 42.2767 186.431 42.03C186.991 41.7833 187.591 41.66 188.231 41.66C189.038 41.66 189.774 41.8333 190.441 42.18C191.108 42.5267 191.604 42.9967 191.931 43.59L190.581 44.38C190.468 44.14 190.294 43.93 190.061 43.75C189.828 43.5633 189.561 43.4167 189.261 43.31C188.961 43.2033 188.654 43.1467 188.341 43.14C187.954 43.1267 187.591 43.1767 187.251 43.29C186.918 43.4033 186.648 43.5767 186.441 43.81C186.241 44.0367 186.141 44.32 186.141 44.66C186.141 44.9933 186.248 45.2467 186.461 45.42C186.681 45.5933 186.964 45.7333 187.311 45.84C187.664 45.94 188.048 46.0567 188.461 46.19C189.068 46.3833 189.634 46.6067 190.161 46.86C190.688 47.1133 191.111 47.43 191.431 47.81C191.758 48.19 191.918 48.66 191.911 49.22C191.911 49.8333 191.728 50.37 191.361 50.83C190.994 51.2833 190.518 51.63 189.931 51.87C189.351 52.11 188.728 52.2167 188.061 52.19ZM198.844 52V38H200.524V52H198.844ZM212.211 46.68V52H210.531V46.72C210.531 46.1 210.401 45.5367 210.141 45.03C209.881 44.5167 209.528 44.11 209.081 43.81C208.635 43.5033 208.131 43.35 207.571 43.35C207.018 43.35 206.525 43.5033 206.091 43.81C205.665 44.11 205.328 44.5167 205.081 45.03C204.835 45.5367 204.711 46.1 204.711 46.72V52H203.031V42H204.711V43.54C205.071 42.9733 205.515 42.53 206.041 42.21C206.575 41.8833 207.168 41.72 207.821 41.72C208.688 41.72 209.448 41.9467 210.101 42.4C210.761 42.8533 211.275 43.4567 211.641 44.21C212.015 44.9567 212.205 45.78 212.211 46.68ZM219.208 52V38H224.038C224.731 38 225.361 38.1433 225.928 38.43C226.501 38.71 226.954 39.12 227.288 39.66C227.621 40.2 227.788 40.8467 227.788 41.6C227.788 42.0067 227.718 42.4 227.578 42.78C227.444 43.1533 227.258 43.4767 227.018 43.75C226.784 44.0167 226.518 44.1967 226.218 44.29C226.638 44.3967 226.994 44.5867 227.288 44.86C227.581 45.1267 227.818 45.44 227.998 45.8C228.184 46.16 228.318 46.5367 228.398 46.93C228.478 47.3233 228.518 47.7033 228.518 48.07C228.518 48.8433 228.341 49.5267 227.988 50.12C227.641 50.7067 227.174 51.1667 226.588 51.5C226.001 51.8333 225.354 52 224.648 52H219.208ZM220.888 50.52H224.498C224.958 50.52 225.374 50.4033 225.748 50.17C226.128 49.93 226.431 49.6033 226.658 49.19C226.884 48.7767 226.998 48.31 226.998 47.79C226.998 47.33 226.884 46.8967 226.658 46.49C226.431 46.0767 226.128 45.7433 225.748 45.49C225.374 45.2367 224.958 45.11 224.498 45.11H220.888V50.52ZM220.888 43.66H223.878C224.491 43.66 225.014 43.48 225.448 43.12C225.888 42.7533 226.108 42.2433 226.108 41.59C226.108 40.8833 225.888 40.3567 225.448 40.01C225.014 39.6567 224.491 39.48 223.878 39.48H220.888V43.66ZM236.236 43.66C236.07 43.5667 235.89 43.4933 235.696 43.44C235.503 43.3867 235.293 43.36 235.066 43.36C234.513 43.36 234.02 43.51 233.586 43.81C233.16 44.11 232.823 44.5167 232.576 45.03C232.33 45.5433 232.206 46.11 232.206 46.73V52H230.516V42H232.196V43.54C232.556 42.98 233.003 42.54 233.536 42.22C234.07 41.8933 234.66 41.73 235.306 41.73C235.526 41.73 235.736 41.74 235.936 41.76C236.136 41.78 236.326 41.82 236.506 41.88L236.236 43.66ZM245.444 42H247.124V52H245.434L245.374 50.31C245.06 50.89 244.627 51.36 244.074 51.72C243.527 52.08 242.877 52.26 242.124 52.26C241.384 52.26 240.694 52.1233 240.054 51.85C239.414 51.57 238.847 51.1867 238.354 50.7C237.867 50.2067 237.487 49.64 237.214 49C236.94 48.36 236.804 47.67 236.804 46.93C236.804 46.2167 236.937 45.5433 237.204 44.91C237.47 44.2767 237.84 43.7233 238.314 43.25C238.794 42.77 239.347 42.3967 239.974 42.13C240.6 41.8567 241.27 41.72 241.984 41.72C242.777 41.72 243.47 41.9067 244.064 42.28C244.664 42.6467 245.144 43.1233 245.504 43.71L245.444 42ZM242.164 50.63C242.83 50.63 243.404 50.4633 243.884 50.13C244.364 49.7967 244.727 49.35 244.974 48.79C245.227 48.23 245.34 47.61 245.314 46.93C245.287 46.2633 245.13 45.66 244.844 45.12C244.557 44.58 244.17 44.1533 243.684 43.84C243.197 43.52 242.63 43.36 241.984 43.36C241.324 43.36 240.724 43.5267 240.184 43.86C239.644 44.1933 239.22 44.64 238.914 45.2C238.614 45.76 238.477 46.3833 238.504 47.07C238.537 47.73 238.724 48.33 239.064 48.87C239.404 49.41 239.844 49.84 240.384 50.16C240.93 50.4733 241.524 50.63 242.164 50.63ZM257.95 43.68L251.81 50.32H257.95V52H249.41V50.32L255.56 43.68H249.41V42H257.95V43.68ZM260.243 42H261.923V52H260.243V42ZM261.093 40.17C260.833 40.17 260.613 40.0833 260.433 39.91C260.253 39.7367 260.163 39.52 260.163 39.26C260.163 39 260.253 38.7833 260.433 38.61C260.613 38.4367 260.833 38.35 261.093 38.35C261.353 38.35 261.573 38.4367 261.753 38.61C261.933 38.7833 262.023 39 262.023 39.26C262.023 39.52 261.933 39.7367 261.753 39.91C261.573 40.0833 261.353 40.17 261.093 40.17ZM269.272 52.26C268.352 52.26 267.512 52.0233 266.752 51.55C265.999 51.0767 265.395 50.4433 264.942 49.65C264.495 48.85 264.272 47.9667 264.272 47C264.272 46.2667 264.402 45.5833 264.662 44.95C264.922 44.31 265.279 43.75 265.732 43.27C266.192 42.7833 266.725 42.4033 267.332 42.13C267.939 41.8567 268.585 41.72 269.272 41.72C270.025 41.72 270.715 41.8733 271.342 42.18C271.975 42.48 272.515 42.9 272.962 43.44C273.415 43.98 273.752 44.6067 273.972 45.32C274.199 46.0333 274.282 46.7967 274.222 47.61H266.062C266.142 48.1767 266.329 48.6833 266.622 49.13C266.915 49.57 267.289 49.92 267.742 50.18C268.202 50.44 268.712 50.5733 269.272 50.58C269.872 50.58 270.415 50.4267 270.902 50.12C271.389 49.8067 271.782 49.38 272.082 48.84L273.792 49.24C273.392 50.1267 272.789 50.8533 271.982 51.42C271.175 51.98 270.272 52.26 269.272 52.26ZM266.012 46.29H272.532C272.479 45.73 272.299 45.22 271.992 44.76C271.685 44.2933 271.295 43.92 270.822 43.64C270.349 43.36 269.832 43.22 269.272 43.22C268.712 43.22 268.199 43.3567 267.732 43.63C267.265 43.9033 266.879 44.2733 266.572 44.74C266.272 45.2 266.085 45.7167 266.012 46.29ZM281.647 43.66C281.48 43.5667 281.3 43.4933 281.107 43.44C280.913 43.3867 280.703 43.36 280.477 43.36C279.923 43.36 279.43 43.51 278.997 43.81C278.57 44.11 278.233 44.5167 277.987 45.03C277.74 45.5433 277.617 46.11 277.617 46.73V52H275.927V42H277.607V43.54C277.967 42.98 278.413 42.54 278.947 42.22C279.48 41.8933 280.07 41.73 280.717 41.73C280.937 41.73 281.147 41.74 281.347 41.76C281.547 41.78 281.737 41.82 281.917 41.88L281.647 43.66ZM283.409 52.26C283.156 52.26 282.939 52.17 282.759 51.99C282.586 51.81 282.499 51.59 282.499 51.33C282.499 51.0833 282.586 50.87 282.759 50.69C282.939 50.51 283.156 50.42 283.409 50.42C283.669 50.42 283.889 50.51 284.069 50.69C284.249 50.87 284.339 51.0833 284.339 51.33C284.339 51.59 284.249 51.81 284.069 51.99C283.889 52.17 283.669 52.26 283.409 52.26ZM297.842 52.26C296.875 52.26 295.972 52.0733 295.132 51.7C294.298 51.32 293.568 50.7967 292.942 50.13C292.322 49.4567 291.835 48.6833 291.482 47.81C291.128 46.93 290.952 45.99 290.952 44.99C290.952 43.9567 291.135 43 291.502 42.12C291.875 41.24 292.382 40.4733 293.022 39.82C293.668 39.1667 294.405 38.66 295.232 38.3C296.065 37.9333 296.945 37.75 297.872 37.75C298.925 37.75 299.928 37.9967 300.882 38.49C301.835 38.9833 302.655 39.6967 303.342 40.63L301.842 41.44C301.328 40.7867 300.718 40.2867 300.012 39.94C299.312 39.5933 298.592 39.42 297.852 39.42C297.145 39.42 296.475 39.5633 295.842 39.85C295.215 40.1367 294.658 40.5367 294.172 41.05C293.692 41.5633 293.315 42.1567 293.042 42.83C292.768 43.5033 292.632 44.2333 292.632 45.02C292.632 45.7867 292.768 46.5067 293.042 47.18C293.315 47.8533 293.688 48.4467 294.162 48.96C294.642 49.4667 295.198 49.8633 295.832 50.15C296.465 50.4367 297.142 50.58 297.862 50.58C298.435 50.58 298.978 50.4833 299.492 50.29C300.012 50.0967 300.488 49.8233 300.922 49.47C301.362 49.1167 301.735 48.7 302.042 48.22C302.355 47.74 302.592 47.2133 302.752 46.64H299.302V45.14H304.712C304.705 46.12 304.518 47.04 304.152 47.9C303.792 48.76 303.295 49.5167 302.662 50.17C302.035 50.8233 301.308 51.3367 300.482 51.71C299.662 52.0767 298.782 52.26 297.842 52.26ZM306.415 42H308.095V52H306.415V42ZM307.265 40.17C307.005 40.17 306.785 40.0833 306.605 39.91C306.425 39.7367 306.335 39.52 306.335 39.26C306.335 39 306.425 38.7833 306.605 38.61C306.785 38.4367 307.005 38.35 307.265 38.35C307.525 38.35 307.745 38.4367 307.925 38.61C308.105 38.7833 308.195 39 308.195 39.26C308.195 39.52 308.105 39.7367 307.925 39.91C307.745 40.0833 307.525 40.17 307.265 40.17ZM316.244 52H314.094L310.444 41.98H312.234L315.164 50.05L318.094 41.98H319.884L316.244 52ZM325.424 52.26C324.504 52.26 323.664 52.0233 322.904 51.55C322.151 51.0767 321.548 50.4433 321.094 49.65C320.648 48.85 320.424 47.9667 320.424 47C320.424 46.2667 320.554 45.5833 320.814 44.95C321.074 44.31 321.431 43.75 321.884 43.27C322.344 42.7833 322.878 42.4033 323.484 42.13C324.091 41.8567 324.738 41.72 325.424 41.72C326.178 41.72 326.868 41.8733 327.494 42.18C328.128 42.48 328.668 42.9 329.114 43.44C329.568 43.98 329.904 44.6067 330.124 45.32C330.351 46.0333 330.434 46.7967 330.374 47.61H322.214C322.294 48.1767 322.481 48.6833 322.774 49.13C323.068 49.57 323.441 49.92 323.894 50.18C324.354 50.44 324.864 50.5733 325.424 50.58C326.024 50.58 326.568 50.4267 327.054 50.12C327.541 49.8067 327.934 49.38 328.234 48.84L329.944 49.24C329.544 50.1267 328.941 50.8533 328.134 51.42C327.328 51.98 326.424 52.26 325.424 52.26ZM322.164 46.29H328.684C328.631 45.73 328.451 45.22 328.144 44.76C327.838 44.2933 327.448 43.92 326.974 43.64C326.501 43.36 325.984 43.22 325.424 43.22C324.864 43.22 324.351 43.3567 323.884 43.63C323.418 43.9033 323.031 44.2733 322.724 44.74C322.424 45.2 322.238 45.7167 322.164 46.29ZM341.059 46.68V52H339.379V46.72C339.379 46.1 339.249 45.5367 338.989 45.03C338.729 44.5167 338.376 44.11 337.929 43.81C337.482 43.5033 336.979 43.35 336.419 43.35C335.866 43.35 335.372 43.5033 334.939 43.81C334.512 44.11 334.176 44.5167 333.929 45.03C333.682 45.5367 333.559 46.1 333.559 46.72V52H331.879V42H333.559V43.54C333.919 42.9733 334.362 42.53 334.889 42.21C335.422 41.8833 336.016 41.72 336.669 41.72C337.536 41.72 338.296 41.9467 338.949 42.4C339.609 42.8533 340.122 43.4567 340.489 44.21C340.862 44.9567 341.052 45.78 341.059 46.68ZM358.645 38V39.68H353.985V52H352.305V39.68H347.655V38H358.645ZM363.373 52.26C362.453 52.26 361.613 52.0233 360.853 51.55C360.1 51.0767 359.497 50.4433 359.043 49.65C358.597 48.85 358.373 47.9667 358.373 47C358.373 46.2667 358.503 45.5833 358.763 44.95C359.023 44.31 359.38 43.75 359.833 43.27C360.293 42.7833 360.827 42.4033 361.433 42.13C362.04 41.8567 362.687 41.72 363.373 41.72C364.293 41.72 365.13 41.9567 365.883 42.43C366.643 42.9033 367.247 43.54 367.693 44.34C368.147 45.14 368.373 46.0267 368.373 47C368.373 47.7267 368.243 48.4067 367.983 49.04C367.723 49.6733 367.363 50.2333 366.903 50.72C366.45 51.2 365.92 51.5767 365.313 51.85C364.713 52.1233 364.067 52.26 363.373 52.26ZM363.373 50.58C364 50.58 364.563 50.4167 365.063 50.09C365.57 49.7567 365.967 49.32 366.253 48.78C366.547 48.2333 366.693 47.64 366.693 47C366.693 46.3467 366.543 45.7467 366.243 45.2C365.95 44.6533 365.553 44.2167 365.053 43.89C364.553 43.5633 363.993 43.4 363.373 43.4C362.747 43.4 362.183 43.5667 361.683 43.9C361.183 44.2267 360.787 44.6633 360.493 45.21C360.2 45.7567 360.053 46.3533 360.053 47C360.053 47.6667 360.203 48.2733 360.503 48.82C360.803 49.36 361.207 49.79 361.713 50.11C362.22 50.4233 362.773 50.58 363.373 50.58ZM381.47 52.26C380.523 52.26 379.633 52.0733 378.8 51.7C377.966 51.32 377.233 50.7967 376.6 50.13C375.966 49.4633 375.47 48.6933 375.11 47.82C374.75 46.94 374.57 46 374.57 45C374.57 44 374.75 43.0633 375.11 42.19C375.47 41.31 375.966 40.5367 376.6 39.87C377.233 39.2033 377.966 38.6833 378.8 38.31C379.633 37.93 380.523 37.74 381.47 37.74C382.423 37.74 383.316 37.93 384.15 38.31C384.983 38.6833 385.716 39.2033 386.35 39.87C386.983 40.5367 387.476 41.31 387.83 42.19C388.19 43.0633 388.37 44 388.37 45C388.37 46 388.19 46.94 387.83 47.82C387.476 48.6933 386.983 49.4633 386.35 50.13C385.716 50.7967 384.983 51.32 384.15 51.7C383.316 52.0733 382.423 52.26 381.47 52.26ZM381.47 50.58C382.196 50.58 382.873 50.4333 383.5 50.14C384.133 49.8467 384.686 49.4433 385.16 48.93C385.64 48.41 386.013 47.8167 386.28 47.15C386.553 46.4767 386.69 45.76 386.69 45C386.69 44.24 386.553 43.5233 386.28 42.85C386.006 42.17 385.63 41.5767 385.15 41.07C384.676 40.5567 384.123 40.1533 383.49 39.86C382.863 39.5667 382.19 39.42 381.47 39.42C380.743 39.42 380.063 39.5667 379.43 39.86C378.803 40.1533 378.25 40.56 377.77 41.08C377.296 41.5933 376.923 42.1867 376.65 42.86C376.383 43.5267 376.25 44.24 376.25 45C376.25 45.7667 376.386 46.4867 376.66 47.16C376.933 47.8333 377.306 48.4267 377.78 48.94C378.26 49.4533 378.813 49.8567 379.44 50.15C380.073 50.4367 380.75 50.58 381.47 50.58ZM392.04 57H390.36V42H392.04V43.71C392.38 43.1233 392.833 42.65 393.4 42.29C393.967 41.9233 394.64 41.74 395.42 41.74C396.147 41.74 396.827 41.8767 397.46 42.15C398.1 42.4233 398.66 42.8033 399.14 43.29C399.62 43.77 399.997 44.3267 400.27 44.96C400.543 45.5933 400.68 46.2733 400.68 47C400.68 47.7267 400.543 48.41 400.27 49.05C399.997 49.69 399.62 50.2533 399.14 50.74C398.66 51.22 398.1 51.5967 397.46 51.87C396.827 52.1433 396.147 52.28 395.42 52.28C394.64 52.28 393.967 52.1 393.4 51.74C392.833 51.3733 392.38 50.8967 392.04 50.31V57ZM395.4 43.37C394.753 43.37 394.187 43.5333 393.7 43.86C393.213 44.1867 392.837 44.6233 392.57 45.17C392.31 45.7167 392.18 46.3267 392.18 47C392.18 47.6667 392.31 48.2767 392.57 48.83C392.837 49.3833 393.21 49.8233 393.69 50.15C394.177 50.4767 394.747 50.64 395.4 50.64C396.047 50.64 396.64 50.48 397.18 50.16C397.72 49.8333 398.153 49.3967 398.48 48.85C398.807 48.2967 398.97 47.68 398.97 47C398.97 46.3333 398.81 45.7267 398.49 45.18C398.17 44.6267 397.74 44.1867 397.2 43.86C396.66 43.5333 396.06 43.37 395.4 43.37ZM404.228 57H402.548V42H404.228V43.71C404.568 43.1233 405.021 42.65 405.588 42.29C406.154 41.9233 406.828 41.74 407.608 41.74C408.334 41.74 409.014 41.8767 409.648 42.15C410.288 42.4233 410.848 42.8033 411.328 43.29C411.808 43.77 412.184 44.3267 412.458 44.96C412.731 45.5933 412.868 46.2733 412.868 47C412.868 47.7267 412.731 48.41 412.458 49.05C412.184 49.69 411.808 50.2533 411.328 50.74C410.848 51.22 410.288 51.5967 409.648 51.87C409.014 52.1433 408.334 52.28 407.608 52.28C406.828 52.28 406.154 52.1 405.588 51.74C405.021 51.3733 404.568 50.8967 404.228 50.31V57ZM407.588 43.37C406.941 43.37 406.374 43.5333 405.888 43.86C405.401 44.1867 405.024 44.6233 404.758 45.17C404.498 45.7167 404.368 46.3267 404.368 47C404.368 47.6667 404.498 48.2767 404.758 48.83C405.024 49.3833 405.398 49.8233 405.878 50.15C406.364 50.4767 406.934 50.64 407.588 50.64C408.234 50.64 408.828 50.48 409.368 50.16C409.908 49.8333 410.341 49.3967 410.668 48.85C410.994 48.2967 411.158 47.68 411.158 47C411.158 46.3333 410.998 45.7267 410.678 45.18C410.358 44.6267 409.928 44.1867 409.388 43.86C408.848 43.5333 408.248 43.37 407.588 43.37ZM419.077 52.26C418.157 52.26 417.317 52.0233 416.557 51.55C415.803 51.0767 415.2 50.4433 414.747 49.65C414.3 48.85 414.077 47.9667 414.077 47C414.077 46.2667 414.207 45.5833 414.467 44.95C414.727 44.31 415.083 43.75 415.537 43.27C415.997 42.7833 416.53 42.4033 417.137 42.13C417.743 41.8567 418.39 41.72 419.077 41.72C419.997 41.72 420.833 41.9567 421.587 42.43C422.347 42.9033 422.95 43.54 423.397 44.34C423.85 45.14 424.077 46.0267 424.077 47C424.077 47.7267 423.947 48.4067 423.687 49.04C423.427 49.6733 423.067 50.2333 422.607 50.72C422.153 51.2 421.623 51.5767 421.017 51.85C420.417 52.1233 419.77 52.26 419.077 52.26ZM419.077 50.58C419.703 50.58 420.267 50.4167 420.767 50.09C421.273 49.7567 421.67 49.32 421.957 48.78C422.25 48.2333 422.397 47.64 422.397 47C422.397 46.3467 422.247 45.7467 421.947 45.2C421.653 44.6533 421.257 44.2167 420.757 43.89C420.257 43.5633 419.697 43.4 419.077 43.4C418.45 43.4 417.887 43.5667 417.387 43.9C416.887 44.2267 416.49 44.6633 416.197 45.21C415.903 45.7567 415.757 46.3533 415.757 47C415.757 47.6667 415.907 48.2733 416.207 48.82C416.507 49.36 416.91 49.79 417.417 50.11C417.923 50.4233 418.477 50.58 419.077 50.58ZM431.451 43.66C431.285 43.5667 431.105 43.4933 430.911 43.44C430.718 43.3867 430.508 43.36 430.281 43.36C429.728 43.36 429.235 43.51 428.801 43.81C428.375 44.11 428.038 44.5167 427.791 45.03C427.545 45.5433 427.421 46.11 427.421 46.73V52H425.731V42H427.411V43.54C427.771 42.98 428.218 42.54 428.751 42.22C429.285 41.8933 429.875 41.73 430.521 41.73C430.741 41.73 430.951 41.74 431.151 41.76C431.351 41.78 431.541 41.82 431.721 41.88L431.451 43.66ZM438.9 43.68H436.63L436.62 52H434.94L434.95 43.68H433.23V42H434.95L434.94 38.86H436.62L436.63 42H438.9V43.68ZM440.692 47.3V42H442.372V47.26C442.372 47.88 442.502 48.4467 442.762 48.96C443.022 49.4667 443.376 49.8733 443.822 50.18C444.269 50.48 444.772 50.63 445.332 50.63C445.892 50.63 446.386 50.48 446.812 50.18C447.246 49.8733 447.582 49.4667 447.822 48.96C448.069 48.4467 448.192 47.88 448.192 47.26V42H449.872V52H448.192V50.45C447.832 51.01 447.389 51.4533 446.862 51.78C446.336 52.1067 445.746 52.27 445.092 52.27C444.219 52.27 443.452 52.0433 442.792 51.59C442.139 51.1367 441.629 50.5333 441.262 49.78C440.896 49.0267 440.706 48.2 440.692 47.3ZM461.254 46.68V52H459.574V46.72C459.574 46.1 459.444 45.5367 459.184 45.03C458.924 44.5167 458.571 44.11 458.124 43.81C457.678 43.5033 457.174 43.35 456.614 43.35C456.061 43.35 455.568 43.5033 455.134 43.81C454.708 44.11 454.371 44.5167 454.124 45.03C453.878 45.5367 453.754 46.1 453.754 46.72V52H452.074V42H453.754V43.54C454.114 42.9733 454.558 42.53 455.084 42.21C455.618 41.8833 456.211 41.72 456.864 41.72C457.731 41.72 458.491 41.9467 459.144 42.4C459.804 42.8533 460.318 43.4567 460.684 44.21C461.058 44.9567 461.248 45.78 461.254 46.68ZM463.446 42H465.126V52H463.446V42ZM464.296 40.17C464.036 40.17 463.816 40.0833 463.636 39.91C463.456 39.7367 463.366 39.52 463.366 39.26C463.366 39 463.456 38.7833 463.636 38.61C463.816 38.4367 464.036 38.35 464.296 38.35C464.556 38.35 464.776 38.4367 464.956 38.61C465.136 38.7833 465.226 39 465.226 39.26C465.226 39.52 465.136 39.7367 464.956 39.91C464.776 40.0833 464.556 40.17 464.296 40.17ZM473.255 43.68H470.985L470.975 52H469.295L469.305 43.68H467.585V42H469.305L469.295 38.86H470.975L470.985 42H473.255V43.68ZM481.663 42H483.443L477.973 57H476.193L478.003 52L474.413 42H476.253L478.843 49.69L481.663 42Z" fill="white" fill-opacity="0.8"/>
</svg>
